<svg width="20" height="20" viewBox="0 0 20 20" fill="none" xmlns="http://www.w3.org/2000/svg">
<path fill-rule="evenodd" clip-rule="evenodd" d="M3.78397 2H1V3.3849H3.26226L6.68893 15.3281C6.77411 15.625 7.04564 15.8296 7.35452 15.8296H17.2884V14.4447H7.87624L7.32511 12.5238H17.4829C17.8228 12.5238 18.1124 12.2772 18.1665 11.9417L19.3597 4.55107C19.392 4.35073 19.3349 4.14629 19.2033 3.99178C19.0717 3.83728 18.879 3.74826 18.6761 3.74826H6.76246V5.13316H17.8629L16.8933 11.1389H6.92777L4.44957 2.50148C4.36438 2.20458 4.09285 2 3.78397 2ZM7.70802 18.253H7.00098C6.75352 18.253 6.55908 18.0626 6.55908 17.8203V17.1366C6.55908 16.8943 6.75352 16.7039 7.00098 16.7039H7.69918C7.94665 16.7039 8.14108 16.8943 8.14108 17.1366V17.8203C8.14992 18.0539 7.95549 18.253 7.70802 18.253ZM16.1392 18.253H16.8374C17.0848 18.253 17.2881 18.0539 17.2793 17.8203V17.1366C17.2793 16.8943 17.0848 16.7039 16.8374 16.7039H16.1392C15.8917 16.7039 15.6973 16.8943 15.6973 17.1366V17.8203C15.6973 18.0626 15.8917 18.253 16.1392 18.253Z" fill="#555555" fill-opacity="0.6"/>
</svg>
