<svg width="20" height="20" viewBox="0 0 20 20" fill="none" xmlns="http://www.w3.org/2000/svg">
<path d="M18 7.87594C18 5.73637 16.2685 4 14.1349 4C12.4617 4 11.0415 5.06653 10.5032 6.56228C9.9585 5.06653 8.53826 4 6.86511 4C4.73152 4 3 5.73637 3 7.87594C3 8.34417 3.09079 8.7929 3.23995 9.21561H3.23346C3.23346 9.21561 3.25292 9.27414 3.29831 9.37169C3.29831 9.37819 3.3048 9.38469 3.3048 9.3912C3.64851 10.2106 5.36706 13.8069 10.1401 16.8764H10.153C10.2503 16.948 10.3671 17 10.4968 17C10.6265 17 10.7432 16.948 10.8405 16.8764H10.8534C15.62 13.8069 17.3385 10.2106 17.6887 9.3912C17.6887 9.38469 17.6952 9.37819 17.6952 9.37169C17.7341 9.27414 17.7601 9.21561 17.7601 9.21561H17.7536C17.9092 8.7994 18 8.35068 18 7.87594Z" stroke="#999999" stroke-width="1.3" stroke-linejoin="round"/>
</svg>
