<svg width="22" height="21" viewBox="0 0 22 21" fill="none" xmlns="http://www.w3.org/2000/svg">
<path d="M10.722 11.8073C12.8801 11.8073 14.6295 10.0578 14.6295 7.89973C14.6295 5.74165 12.8801 3.99219 10.722 3.99219C8.56392 3.99219 6.81445 5.74165 6.81445 7.89973C6.81445 10.0578 8.56392 11.8073 10.722 11.8073Z" stroke="#A5A9AC" stroke-width="0.9059"/>
<path d="M10.7218 1.54297C7.21129 1.54297 4.36523 4.388 4.36523 7.89954C4.36523 7.99828 4.36832 8.096 4.37346 8.19474C4.37552 8.23074 4.37758 8.26674 4.37963 8.30171C4.38478 8.36445 4.38889 8.42411 4.39403 8.4848C4.39815 8.52903 4.40329 8.57325 4.40843 8.61954C4.41461 8.66583 4.42078 8.71211 4.42592 8.76045C4.43209 8.81085 4.43929 8.86331 4.44752 8.91577C4.45163 8.93737 4.45575 8.96 4.45986 8.98365C4.49895 9.21097 4.55038 9.43417 4.61312 9.65223C4.61415 9.65737 4.61621 9.66354 4.61723 9.66868C4.63883 9.74685 4.66455 9.82297 4.68821 9.90011L4.67792 9.91451C4.67792 9.91451 5.68283 13.0301 10.6292 18.9845H10.6313C10.6519 19.0102 10.6858 19.0287 10.7218 19.0287C10.7588 19.0287 10.7907 19.0102 10.8133 18.9845H10.8154C15.7618 13.0301 16.7657 9.91451 16.7657 9.91451L16.7544 9.90011C16.7791 9.824 16.8037 9.74788 16.8264 9.66868C16.8284 9.66251 16.8284 9.65634 16.8305 9.65223C16.8943 9.43314 16.9436 9.20994 16.9827 8.98365C16.9879 8.96 16.992 8.93737 16.9961 8.91577C17.0043 8.86331 17.0115 8.81085 17.0177 8.75943C17.0239 8.71108 17.0311 8.6648 17.0362 8.61851C17.0413 8.57223 17.0455 8.528 17.0496 8.48377C17.0557 8.42308 17.0599 8.36343 17.064 8.30068C17.0671 8.26674 17.0701 8.23074 17.0701 8.19371C17.0763 8.09497 17.0794 7.99725 17.0794 7.89851C17.0784 4.388 14.2323 1.54297 10.7218 1.54297Z" stroke="#A5A9AC" stroke-width="1.2545"/>
</svg>
