<svg width="21" height="21" viewBox="0 0 21 21" fill="none" xmlns="http://www.w3.org/2000/svg">
<path d="M17.2207 9.21484C17.9499 9.92568 17.9499 11.0808 17.2207 11.7916" stroke="#A5A9AC" stroke-miterlimit="10"/>
<path d="M18.7695 7.70703C20.4102 9.30642 20.4102 11.7943 18.7695 13.3937" stroke="#A5A9AC" stroke-miterlimit="10"/>
<path d="M3.91211 11.7877C3.18294 11.0769 3.18294 9.92178 3.91211 9.21094" stroke="#A5A9AC" stroke-miterlimit="10"/>
<path d="M2.2715 13.3C0.630856 11.7006 0.630856 9.21267 2.2715 7.61328" stroke="#A5A9AC" stroke-miterlimit="10"/>
<path d="M14.1205 19.0796H6.91993C6.28191 19.0796 5.82617 18.6354 5.82617 18.0134V3.08579C5.82617 2.46381 6.28191 2.01953 6.91993 2.01953H14.1205C14.7585 2.01953 15.2143 2.46381 15.2143 3.08579V18.0134C15.2143 18.5465 14.7585 19.0796 14.1205 19.0796Z" stroke="#A5A9AC" stroke-width="1.25" stroke-miterlimit="10"/>
<path d="M5.82617 16.4141H15.2143" stroke="#A5A9AC" stroke-width="0.5" stroke-miterlimit="10"/>
<path d="M9.6543 17.8359H11.4772" stroke="#A5A9AC" stroke-width="0.75" stroke-miterlimit="10"/>
</svg>
