<svg width="30" height="30" viewBox="0 0 30 30" fill="none" xmlns="http://www.w3.org/2000/svg">
<path d="M18.3405 16.1639L17.9805 16.3039L16.8105 16.7639L19.3705 17.9839C20.1205 18.3039 19.7105 19.2739 19.7105 19.2739L19.7305 19.2639C19.6905 19.3539 19.6505 19.4539 19.6205 19.5439C19.3405 20.3639 19.4505 21.2639 19.9305 22.0539C20.3905 22.8239 21.1405 23.4139 22.0505 23.7239C22.4805 23.8739 22.9205 23.9439 23.3605 23.9439C23.8405 23.9439 24.3105 23.8539 24.7505 23.6839C25.6105 23.3339 26.2405 22.6939 26.5205 21.8739C27.0805 20.2039 25.9905 18.3339 24.0905 17.6939C23.8505 17.6139 23.6205 17.5539 23.3805 17.5239L23.4005 17.5139C23.3505 17.5139 23.3005 17.5139 23.2505 17.5039C23.0905 17.4839 22.9305 17.4739 22.7705 17.4739C20.5005 17.3039 19.4705 16.5839 19.4705 16.5839C19.0605 16.3639 18.7305 16.0639 18.4705 15.7539C18.4605 15.7839 18.4605 15.7939 18.4505 15.7939L18.3405 16.1639ZM20.6505 19.8939C20.9305 19.0639 21.7905 18.5639 22.7705 18.5639C23.0805 18.5639 23.4105 18.6139 23.7305 18.7239C25.0605 19.1739 25.8405 20.4239 25.4705 21.5139C25.3005 22.0239 24.8905 22.4339 24.3305 22.6539C23.7405 22.8939 23.0505 22.9039 22.3905 22.6739C21.7305 22.4539 21.1905 22.0239 20.8605 21.4839C20.5605 20.9739 20.4805 20.4039 20.6505 19.8939Z" fill="#3D3D3C"/>
<path d="M7.11977 10.2428C5.41977 9.58276 4.00977 10.6228 4.00977 10.6228L12.1798 14.5328L14.8498 13.2528L7.11977 10.2428Z" fill="#3D3D3C"/>
<path d="M26.52 8.07198C26.24 7.25198 25.61 6.60198 24.75 6.26198C23.92 5.93198 22.96 5.91198 22.05 6.21198C21.14 6.52198 20.39 7.11198 19.93 7.88198C19.45 8.68198 19.34 9.57198 19.62 10.392C19.65 10.492 19.69 10.582 19.73 10.672H19.71C19.71 10.672 20.12 11.642 19.37 11.962L4 19.312C4 19.312 5.41 20.352 7.11 19.692L17.7 15.562C17.7 15.562 18.14 14.062 19.46 13.352C19.46 13.352 20.5 12.642 22.76 12.462C22.77 12.462 22.77 12.462 22.78 12.462C22.94 12.462 23.1 12.452 23.26 12.432C23.31 12.432 23.35 12.432 23.4 12.422L23.38 12.412C23.62 12.372 23.85 12.322 24.09 12.242C25 11.932 25.75 11.342 26.21 10.572C26.68 9.79198 26.79 8.90198 26.52 8.07198ZM15.67 15.582C15.38 15.582 15.14 15.342 15.14 15.052C15.14 14.762 15.38 14.522 15.67 14.522C15.96 14.522 16.2 14.762 16.2 15.052C16.2 15.342 15.96 15.582 15.67 15.582ZM25.26 10.022C24.93 10.572 24.39 10.992 23.73 11.222C22.4 11.672 21.02 11.142 20.65 10.052C20.48 9.54198 20.55 8.97198 20.86 8.45198C21.19 7.90198 21.73 7.48198 22.39 7.26198C22.71 7.15198 23.03 7.10198 23.35 7.10198C23.69 7.10198 24.02 7.16198 24.33 7.28198C24.89 7.50198 25.3 7.91198 25.47 8.42198C25.65 8.94198 25.57 9.51198 25.26 10.022Z" fill="#3D3D3C"/>
</svg>
