<svg width="20" height="20" viewBox="0 0 20 20" fill="none" xmlns="http://www.w3.org/2000/svg">
<path fill-rule="evenodd" clip-rule="evenodd" d="M3.3849 8.95935C3.3849 5.90098 5.94944 3.3849 9.15906 3.3849C12.3687 3.3849 14.9332 5.90098 14.9332 8.95935C14.9332 12.0177 12.3687 14.5338 9.15906 14.5338C5.94944 14.5338 3.3849 12.0177 3.3849 8.95935ZM9.15906 2C5.22585 2 2 5.09549 2 8.95935C2 12.8232 5.22585 15.9187 9.15906 15.9187C10.8998 15.9187 12.5019 15.3124 13.7472 14.3015L17.3566 17.7994L18.6416 16.4734L15.0175 12.9613C15.8361 11.8317 16.3181 10.4529 16.3181 8.95935C16.3181 5.09549 13.0923 2 9.15906 2Z" fill="#555555" fill-opacity="0.6"/>
</svg>
