<svg width="20" height="20" viewBox="0 0 20 20" fill="none" xmlns="http://www.w3.org/2000/svg">
<path fill-rule="evenodd" clip-rule="evenodd" d="M7.10951 7.45494C7.10951 5.77972 8.51706 4.3849 10.2995 4.3849C12.0818 4.3849 13.4894 5.77972 13.4894 7.45494C13.4894 9.13017 12.0818 10.525 10.2995 10.525C8.51706 10.525 7.10951 9.13017 7.10951 7.45494ZM10.2995 3C7.79347 3 5.72461 4.97423 5.72461 7.45494C5.72461 8.93064 6.45672 10.2271 7.57744 11.0354C4.90188 12.0809 3 14.6234 3 17.6196H4.3849C4.3849 14.4861 7.01078 11.9105 10.298 11.9105C13.5852 11.9105 16.211 14.4861 16.211 17.6196H17.5959C17.5959 14.6241 15.695 12.0821 13.0204 11.0361C14.1417 10.2279 14.8743 8.9311 14.8743 7.45494C14.8743 4.97423 12.8054 3 10.2995 3Z" fill="#555555" fill-opacity="0.6"/>
</svg>
