<svg xmlns="http://www.w3.org/2000/svg" viewBox="0 0 500 500"><defs><style>.cls-1{fill:#1d1d1b;}.cls-2{fill:#fff;}</style></defs><g id="Слой_2" data-name="Слой 2"><g id="Слой_1-2" data-name="Слой 1"><rect class="cls-1" width="500" height="500"/><path class="cls-2" d="M0,228l84.11-13.56S136,83,299,0h68.89C168.33,87.67,139,202,139,202S293.33,177.33,500,59.92V93.56C362.67,179,130.56,228,130.56,228s-19.7,105,146.22,30.44c12.11-5.44,41.55,17.89,9.55,35.23-89.11,48.27-139.5,78.13-104.44,121.44,28.78,35.56,151.16-26.41,202-66.44,17.78-14,18.54-40,37.61-36.67,22.83,4,32.05,19.91-.5,46-51.56,41.33-214,139.56-281.11,88C82,401.52,180.33,321.78,180.33,321.78S56.77,337.26,77.67,238.17C71.89,237.5,0,250.67,0,250.67Z"/></g></g></svg>