<svg width="360" height="95" viewBox="0 0 360 95" fill="none" xmlns="http://www.w3.org/2000/svg">
<path d="M0.117188 57.4804L53.6719 1.75781H72.2461V57.4804H91.9922V73.7695H72.2461V93.3398H53.6719V73.7695H0L0.117188 57.4804ZM53.6719 57.4804V25.2539L22.3828 57.4804H53.6719ZM130.289 47.3437C130.289 39.9609 131.403 33.3398 133.629 27.4804C135.856 21.621 139.02 16.6601 143.121 12.5976C147.223 8.49609 152.204 5.37109 158.063 3.22265C163.922 1.07421 170.485 0 177.75 0C185.016 0 191.579 1.07421 197.438 3.22265C203.297 5.37109 208.278 8.49609 212.379 12.5976C216.481 16.6601 219.645 21.621 221.871 27.4804C224.098 33.3398 225.211 39.9609 225.211 47.3437C225.211 54.7265 224.098 61.3476 221.871 67.207C219.645 73.0664 216.481 78.0273 212.379 82.0898C208.278 86.1523 203.297 89.2578 197.438 91.4062C191.579 93.5546 185.016 94.6289 177.75 94.6289C170.485 94.6289 163.922 93.5546 158.063 91.4062C152.204 89.2578 147.223 86.1523 143.121 82.0898C139.02 78.0273 135.856 73.0664 133.629 67.207C131.403 61.3476 130.289 54.7265 130.289 47.3437ZM148.864 47.2851C148.864 52.2851 149.528 56.6992 150.856 60.5273C152.223 64.3554 154.157 67.5781 156.657 70.1953C159.157 72.7734 162.184 74.746 165.739 76.1132C169.293 77.4414 173.297 78.1054 177.75 78.1054C182.204 78.1054 186.207 77.4414 189.762 76.1132C193.317 74.746 196.344 72.7734 198.844 70.1953C201.344 67.5781 203.258 64.3554 204.586 60.5273C205.954 56.6992 206.637 52.2851 206.637 47.2851C206.637 42.3242 205.954 37.9492 204.586 34.1601C203.258 30.332 201.344 27.1093 198.844 24.4921C196.344 21.875 193.317 19.9023 189.762 18.5742C186.207 17.207 182.204 16.5234 177.75 16.5234C173.297 16.5234 169.293 17.207 165.739 18.5742C162.184 19.9023 159.157 21.875 156.657 24.4921C154.157 27.1093 152.223 30.332 150.856 34.1601C149.528 37.9492 148.864 42.3242 148.864 47.2851ZM268.079 57.4804L321.633 1.75781H340.207V57.4804H359.954V73.7695H340.207V93.3398H321.633V73.7695H267.961L268.079 57.4804ZM321.633 57.4804V25.2539L290.344 57.4804H321.633Z" fill="#E4E4E4"/>
</svg>
