<svg width="355" height="96" viewBox="0 0 355 96" fill="none" xmlns="http://www.w3.org/2000/svg">
<g clip-path="url(#clip0_2142_13451)">
<path d="M9.27344 72.2031C11.5 73.3359 13.9023 74.3125 16.4805 75.1328C19.0977 75.9141 21.7734 76.5781 24.5078 77.125C27.2812 77.6719 30.0547 78.082 32.8281 78.3555C35.6406 78.5898 38.375 78.707 41.0312 78.707C45.7188 78.707 49.7617 78.375 53.1602 77.7109C56.5977 77.0078 59.4102 76.0312 61.5977 74.7812C63.8242 73.5312 65.4648 72.0469 66.5195 70.3281C67.6133 68.5703 68.1602 66.6367 68.1602 64.5273C68.1602 62.3789 67.5938 60.4062 66.4609 58.6094C65.3672 56.8125 63.707 55.2695 61.4805 53.9805C59.293 52.6914 56.5195 51.6953 53.1602 50.9922C49.8398 50.25 45.9531 49.8789 41.5 49.8789C39.5078 49.8789 37.2617 49.9766 34.7617 50.1719C32.2617 50.3281 29.6055 50.6016 26.793 50.9922C23.9805 51.3828 21.0508 51.9297 18.0039 52.6328C14.957 53.2969 11.8711 54.1172 8.74609 55.0938V2.41797H79V18.8828H25.9141V36.6367C28.8438 35.9727 31.9102 35.4258 35.1133 34.9961C38.3164 34.5273 41.8906 34.293 45.8359 34.293C52.2812 34.293 58.043 34.9961 63.1211 36.4023C68.1992 37.8086 72.4766 39.8203 75.9531 42.4375C79.4688 45.0547 82.1445 48.2188 83.9805 51.9297C85.8164 55.6016 86.7344 59.7227 86.7344 64.293C86.7344 69.0195 85.7383 73.2969 83.7461 77.125C81.793 80.9141 78.8828 84.1562 75.0156 86.8516C71.1875 89.5469 66.4609 91.6172 60.8359 93.0625C55.25 94.5078 48.8242 95.2305 41.5586 95.2305C37.8086 95.2305 34.0781 95.0156 30.3672 94.5859C26.6953 94.1953 23.1211 93.6289 19.6445 92.8867C16.168 92.1055 12.8281 91.168 9.625 90.0742C6.46094 88.9414 3.49219 87.6719 0.71875 86.2656L9.27344 72.2031ZM125.5 48.0039C125.5 40.6211 126.613 34 128.84 28.1406C131.066 22.2812 134.23 17.3203 138.332 13.2578C142.434 9.15625 147.414 6.03125 153.273 3.88281C159.133 1.73437 165.695 0.660156 172.961 0.660156C180.227 0.660156 186.789 1.73437 192.648 3.88281C198.508 6.03125 203.488 9.15625 207.59 13.2578C211.691 17.3203 214.855 22.2812 217.082 28.1406C219.309 34 220.422 40.6211 220.422 48.0039C220.422 55.3867 219.309 62.0078 217.082 67.8672C214.855 73.7266 211.691 78.6875 207.59 82.75C203.488 86.8125 198.508 89.918 192.648 92.0664C186.789 94.2148 180.227 95.2891 172.961 95.2891C165.695 95.2891 159.133 94.2148 153.273 92.0664C147.414 89.918 142.434 86.8125 138.332 82.75C134.23 78.6875 131.066 73.7266 128.84 67.8672C126.613 62.0078 125.5 55.3867 125.5 48.0039ZM144.074 47.9453C144.074 52.9453 144.738 57.3594 146.066 61.1875C147.434 65.0156 149.367 68.2383 151.867 70.8555C154.367 73.4336 157.395 75.4062 160.949 76.7734C164.504 78.1016 168.508 78.7656 172.961 78.7656C177.414 78.7656 181.418 78.1016 184.973 76.7734C188.527 75.4062 191.555 73.4336 194.055 70.8555C196.555 68.2383 198.469 65.0156 199.797 61.1875C201.164 57.3594 201.848 52.9453 201.848 47.9453C201.848 42.9844 201.164 38.6094 199.797 34.8203C198.469 30.9922 196.555 27.7695 194.055 25.1523C191.555 22.5352 188.527 20.5625 184.973 19.2344C181.418 17.8672 177.414 17.1836 172.961 17.1836C168.508 17.1836 164.504 17.8672 160.949 19.2344C157.395 20.5625 154.367 22.5352 151.867 25.1523C149.367 27.7695 147.434 30.9922 146.066 34.8203C144.738 38.6094 144.074 42.9844 144.074 47.9453ZM259.656 48.0039C259.656 40.6211 260.77 34 262.996 28.1406C265.223 22.2812 268.387 17.3203 272.488 13.2578C276.59 9.15625 281.57 6.03125 287.43 3.88281C293.289 1.73437 299.852 0.660156 307.117 0.660156C314.383 0.660156 320.945 1.73437 326.805 3.88281C332.664 6.03125 337.645 9.15625 341.746 13.2578C345.848 17.3203 349.012 22.2812 351.238 28.1406C353.465 34 354.578 40.6211 354.578 48.0039C354.578 55.3867 353.465 62.0078 351.238 67.8672C349.012 73.7266 345.848 78.6875 341.746 82.75C337.645 86.8125 332.664 89.918 326.805 92.0664C320.945 94.2148 314.383 95.2891 307.117 95.2891C299.852 95.2891 293.289 94.2148 287.43 92.0664C281.57 89.918 276.59 86.8125 272.488 82.75C268.387 78.6875 265.223 73.7266 262.996 67.8672C260.77 62.0078 259.656 55.3867 259.656 48.0039ZM278.23 47.9453C278.23 52.9453 278.895 57.3594 280.223 61.1875C281.59 65.0156 283.523 68.2383 286.023 70.8555C288.523 73.4336 291.551 75.4062 295.105 76.7734C298.66 78.1016 302.664 78.7656 307.117 78.7656C311.57 78.7656 315.574 78.1016 319.129 76.7734C322.684 75.4062 325.711 73.4336 328.211 70.8555C330.711 68.2383 332.625 65.0156 333.953 61.1875C335.32 57.3594 336.004 52.9453 336.004 47.9453C336.004 42.9844 335.32 38.6094 333.953 34.8203C332.625 30.9922 330.711 27.7695 328.211 25.1523C325.711 22.5352 322.684 20.5625 319.129 19.2344C315.574 17.8672 311.57 17.1836 307.117 17.1836C302.664 17.1836 298.66 17.8672 295.105 19.2344C291.551 20.5625 288.523 22.5352 286.023 25.1523C283.523 27.7695 281.59 30.9922 280.223 34.8203C278.895 38.6094 278.23 42.9844 278.23 47.9453Z" fill="#E4E4E4"/>
</g>
<defs>
<clipPath id="clip0_2142_13451">
<rect width="355" height="96" fill="white"/>
</clipPath>
</defs>
</svg>
