<svg width="119" height="22" viewBox="0 0 119 22" fill="none" xmlns="http://www.w3.org/2000/svg">
<rect x="42.0957" y="0.5" width="35" height="21" stroke="white" stroke-opacity="0.3"/>
<path d="M57.0643 10.826C57.0643 8.65608 58.0789 6.72395 59.6561 5.47515C58.4928 4.55327 57.0219 4 55.4218 4C51.6509 4 48.5957 7.05663 48.5957 10.826C48.5957 14.5969 51.6509 17.6521 55.4218 17.6521C57.0219 17.6521 58.492 17.1017 59.6561 16.1784C58.0789 14.9281 57.0643 12.9975 57.0643 10.826Z" fill="white" fill-opacity="0.6"/>
<path d="M57.0615 10.8275C57.0615 12.9982 58.0761 14.9296 59.6533 16.1798C61.2319 14.9296 62.245 12.9982 62.245 10.8275C62.245 8.6575 61.2319 6.72537 59.6533 5.47656C58.0761 6.72537 57.0615 8.65822 57.0615 10.8275Z" fill="white" fill-opacity="0.8"/>
<path d="M63.8886 4C62.2884 4 60.8183 4.55327 59.6543 5.47515C61.2329 6.72395 62.246 8.6568 62.246 10.826C62.246 12.9967 61.2329 14.9281 59.6543 16.1784C60.8176 17.1017 62.2884 17.6521 63.8886 17.6521C67.6595 17.6521 70.7147 14.5969 70.7147 10.826C70.7147 7.05663 67.6595 4 63.8886 4Z" fill="white"/>
<rect x="83.0957" y="0.5" width="35" height="21" stroke="white" stroke-opacity="0.3"/>
<path d="M102.616 8.75019L100.917 12.1206H100.747V8.01562H98.3301V14.9638H100.379C100.917 14.9638 101.408 14.6786 101.634 14.2292L103.334 10.8588H103.504V14.9638H105.92V8.01562H103.872C103.334 8.01562 102.843 8.30081 102.616 8.75019Z" fill="white"/>
<path d="M93.5537 8.92303L92.5435 12.1206H92.3736L91.3635 8.92303C91.1935 8.38723 90.6554 8.01562 90.0418 8.01562H87.625V14.9638H90.0418V10.8588H90.2117L91.59 14.9638H93.3177L94.696 10.8588H94.8659V14.9638H97.2827V8.01562H94.8753C94.2617 8.01562 93.7236 8.38723 93.5537 8.92303Z" fill="white"/>
<path d="M106.959 11.1719V14.9657H109.366V12.7534H111.962C113.086 12.7534 114.049 12.0966 114.398 11.1719H106.959Z" fill="white"/>
<path d="M111.962 8.01562H106.609C106.93 9.63167 108.479 10.8588 110.338 10.8588H114.492C114.53 10.7033 114.539 10.5477 114.539 10.3835C114.549 9.07859 113.388 8.01562 111.962 8.01562Z" fill="white"/>
<rect x="1.0957" y="0.5" width="35" height="21" stroke="white" stroke-opacity="0.3"/>
<path d="M8.02916 7.13281H4.62244L4.5957 7.2945C7.2462 7.93567 8.99931 9.48667 9.72754 11.3499L8.98687 7.78891C8.85938 7.29824 8.48874 7.15147 8.02916 7.13281Z" fill="white"/>
<path d="M13.7891 14.8834L15.1093 7.13281H17.2219L15.9004 14.8834H13.7891Z" fill="white"/>
<path d="M23.5619 7.32525C23.1434 7.16853 22.4873 7 21.6683 7C19.5818 7 18.1104 8.05037 18.0986 9.55659C18.0862 10.6716 19.1484 11.2935 19.95 11.6642C20.7721 12.0429 21.0483 12.2861 21.0445 12.625C21.0396 13.1449 20.3884 13.3818 19.7815 13.3818C18.9357 13.3818 18.4867 13.2643 17.7933 12.9764L17.5209 12.8514L17.2236 14.5871C17.718 14.8035 18.6303 14.9913 19.5775 15C21.7976 15 23.2398 13.9614 23.2553 12.3532C23.2641 11.4701 22.7006 10.7998 21.4817 10.2456C20.7429 9.88868 20.2914 9.64801 20.2964 9.28607C20.2964 8.96393 20.6789 8.6194 21.506 8.6194C22.1963 8.60821 22.6969 8.75933 23.0874 8.91729L23.2765 9.00746L23.5619 7.32525Z" fill="white"/>
<path d="M28.9791 7.14062H27.3467C26.8411 7.14062 26.4623 7.27931 26.2416 7.78428L23.1035 14.885H25.3218C25.3218 14.885 25.6844 13.9317 25.7665 13.7215C26.009 13.7215 28.1632 13.7252 28.4717 13.7252C28.5351 13.9963 28.7291 14.885 28.7291 14.885H30.6881L28.9791 7.14062ZM26.374 12.1363C26.5482 11.6891 27.2155 9.96961 27.2155 9.96961C27.203 9.99013 27.389 9.52122 27.4959 9.23018L27.6383 9.89809C27.6383 9.89809 28.0438 11.7482 28.1278 12.1369H26.374V12.1363Z" fill="white"/>
<path d="M12.0167 7.14062L9.94888 12.4255L9.72873 11.3514C9.34378 10.1139 8.14353 8.7706 6.80273 8.09958L8.6939 14.8769L10.929 14.8745L14.2542 7.14062H12.0167Z" fill="white"/>
</svg>
