<?xml version="1.0" encoding="utf-8"?>
<!-- Generator: Adobe Illustrator 25.3.1, SVG Export Plug-In . SVG Version: 6.00 Build 0)  -->
<svg version="1.1" id="Слой_1" xmlns="http://www.w3.org/2000/svg" xmlns:xlink="http://www.w3.org/1999/xlink" x="0px" y="0px"
	 viewBox="0 0 283.5 118.8" enable-background="new 0 0 283.5 118.8" xml:space="preserve">
<path id="zanna" fill="#3D3D3C" d="M283.4,59.3L283.4,59.3c-0.2-0.3-0.5-0.5-0.9-0.5c-0.4,0-0.6,0.1-0.8,0.4c-1,1.3-2.1,2.4-3.4,3.3
	c-2.5,1.9-5.5,3.7-9,5.4c-6.2,3.1-10.1,3.1-13.1,2.7c-2.6-0.3-3.3-2.6-3.5-4c-0.3-2-0.1-4,0.5-5.8l0-0.1c0-0.8-0.3-1.4-0.8-1.8
	c-0.5-0.4-1.1-0.6-1.8-0.6c-0.5,0-1.2,0.3-1.6,1.5c-1.6,4.9-5,9.6-7.8,10.8c0.7-2.4,2.5-6,4.1-8.1c1.8-2.4,4.1-4.1,6.4-4.8
	c0.5-0.2,1.4-1.3,1.4-2.1c0-0.2,0-0.3,0-0.5c0.1-0.4,0.1-0.9-0.4-1.3c-0.7-0.6-1.8-0.2-2.6,0.1c-2.1,0.8-3.9,2-5.3,3.4
	c-1.2,1.1-2.2,2.3-3,3.4c-1.9,1.6-3.8,2.9-6,4c-0.1,0.1-0.2,0.1-0.4,0.2c-0.1,0.1-0.3,0.2-0.4,0.2c-1.6,0.9-3.3,1.7-5.3,2.5
	c-1.9,0.8-3.9,1.2-5.9,1.4c-1.9,0.1-3.5-0.4-4.9-1.6c-0.7-0.9-0.7-2-0.5-2.8c0.1-0.9,0.4-1.8,0.9-3.1c0.4-0.9,0.6-1.9,0.8-2.9
	c0.2-1,0.1-2-0.3-2.9c-0.2-0.5-0.6-1-1-1.3c-0.4-0.3-1-0.2-1.5,0.2c-3.7,3.1-6.7,5.7-9.2,8.3l-0.1,0.1c-1.8,1.7-3.7,3.5-5.6,5.2
	c0-0.1,0.1-0.2,0.1-0.3c0.7-1.9,1.3-4.1,2-6.9c0.2-1.1-0.3-1.6-0.9-1.9l-0.1-0.1c-0.5-0.4-1.1-0.7-1.9-0.6c-0.9,0.2-1.4,0.7-1.7,1.7
	c0,0,0,0.1,0,0.1c-1.8,1.6-4,3.1-6.7,4.5c-0.1,0-0.2,0.1-0.2,0.1c-0.2,0.1-0.4,0.2-0.5,0.3c-0.6,0.3-1.3,0.8-2,1.3
	c-1.3,0.9-2.9,1.9-4.1,2.4c-0.6,0.2-1,0.4-1.4,0.6c-1.2,0.6-2.1,1-4.1,1.1c-0.1,0-0.1,0-0.2,0c-2.1,0-3.3-1.3-4-2.5
	c-0.5-0.9-0.8-2.8-0.7-3.9c0-0.3,0.1-0.6,0.1-0.9c0.1-0.7,0.2-1.4,0.4-2.1c0.1-0.3,0.3-0.6,0.4-0.9c0.3-0.5,0.5-1,0.6-1.7
	c0.2-1.1,0.1-2-0.3-2.9c-0.2-0.5-0.6-1-1-1.3c-0.4-0.3-1-0.2-1.5,0.2c-3.7,3.1-6.7,5.7-9.2,8.3l-1.3,1.3c-1.5,1.4-2.9,2.8-4.4,4.1
	c0.1-0.1,0.1-0.3,0.2-0.4c0.7-1.9,1.3-4.1,2-6.9c0.2-1-0.1-1.7-0.8-2.1c-0.7-0.4-1.4-0.6-2.2-0.4c-0.9,0.2-1.4,0.7-1.7,1.7l0,0.1
	c0,0,0,0.1-0.1,0.2l0,0.1c-0.9,1-1.7,1.7-2.6,2.3c-2.5,1.9-5.5,3.7-9,5.4c-3.4,1.7-6.7,2.6-9.9,2.6c-2.1-0.8-3.2-2.1-3.5-4
	c-0.3-2-0.1-4,0.5-5.8l0-0.1c0-0.8-0.3-1.4-0.8-1.8c-0.5-0.4-1.1-0.6-1.8-0.6c-1,0-1.6,0.4-1.8,1.1c-1.4,4.5-5,11.3-7.2,11.5
	c-0.1-0.1-0.2-0.2-0.2-0.3c-0.4-1.5,2.1-5.9,3.6-7.9c1.6-2.1,4.4-4.6,6.8-5.1c0.1-0.1,0.3-0.1,0.4-0.1c0.6-0.2,1-0.4,1.1-1.2
	c0-0.8-0.3-1.5-0.8-2c-0.7-0.6-1.5-0.7-2.3-0.4c-2.4,1-5.3,3.7-6.1,4.5c-4.3,4.1-6.5,8-7.9,14.1c-0.1,0.5-0.1,0.9-0.1,1.3
	c-3.1-1-9.3-2.7-14.2-2.5c-3.1,0.2-9.4,2-12.7,3c-0.4,0.1-0.7,0.2-1,0.3c0.7-0.9,1.5-1.8,2.3-2.7c0.6-0.7,1.2-1.3,1.8-2.1
	c1.1-1.3,3.2-3.3,4.6-4.4c3.5-2.7,7.4-5.1,11.4-6.9l0.2-0.2c0.6-0.4,1.1-0.8,1-1.4c-0.1-0.7-0.8-1.4-1.3-1.7
	c-0.7-0.5-1.5-0.6-2.4-0.3c-1.7,0.5-2.9,1-4.1,1.4c-1.1,0.4-2.2,0.9-3.8,1.3c-0.5,0.2-1.1,0.3-1.6,0.5c-0.8,0.3-1.6,0.6-2.3,0.7
	l-3.5,0.8c-0.7,0.2-1.7,0.3-2.6,0.4c-1.2,0.1-1.9,0.2-2.3,0.4c-0.2,0.1-0.3,0.3-0.3,0.5c0,0.6,0.7,1.2,1.6,1.9l0.1,0.1
	c0.5,0.5,1.1,1,2.4,0.7c3.2-0.7,6.1-1.5,8.7-2.3l0.2-0.1C90.8,67,84.1,74.5,82.2,76.9c-0.5,0.7-0.3,1.3,0.1,1.5
	c0.4,0.3,1,0.5,1.7,0.6c0.3,0,0.6,0.1,0.9,0.1c0.9,0,1.8-0.2,2.6-0.4c1.3-0.4,2.4-0.9,3.5-1.4c1.2-0.6,7.2-3,8.6-3.3
	c6.1-1.6,14.1,1.1,17,2.2c0.4,0.2,0.8,0.3,1,0.3c1.6,0.6,3,0.2,4.4-1.2c2.4-2.7,4.7-5.5,6.8-8.4c0.9,3.2,2.6,5.2,4.8,5.8
	c2.4,0.7,5.2,0.5,8.2-0.7c3.1-1.1,6.3-2.8,9.7-5c0.1-0.1,0.2-0.2,0.3-0.2c0.1-0.1,0.2-0.1,0.3-0.2c1.3-0.9,2.6-1.8,3.9-2.8
	c-0.1,0.3-0.2,0.6-0.3,0.9c-0.2,0.5-0.3,1-0.5,1.5c-1.1,3.1-1.8,5.5-2.2,7.7c-0.2,0.7,0,1.3,0.5,1.9c0.5,0.5,1,0.8,1.8,0.8
	c0.7,0,1.3-0.2,1.8-0.8l0.1-0.1c1.7-3,4-6,6.9-8.9c2.9-2.9,5.7-5.3,8.5-7.3c-0.2,1.6-0.1,3.2,0.1,4.8c0,0.3,0.1,0.5,0.1,0.8
	c0.2,1.6,0.5,3.3,1.9,5c2.5,1.9,5,2.3,8.4,1.6c2.4-0.6,5-2.2,7.4-3.8c0.9-0.6,1.8-1.2,2.6-1.7c2-1.1,3.9-2.3,6-3.7
	c-0.1,0.2-0.1,0.4-0.2,0.6l0,0.1c-0.2,0.5-0.3,1-0.5,1.6c-0.1,0.5-0.3,0.9-0.4,1.4c-1,2.9-1.7,5.4-2.3,7.7c-0.2,0.7,0,1.3,0.5,1.9
	c0.4,0.5,1,0.6,1.5,0.6l0.2,0c0.7,0,1.3,0,1.9-0.6c1.7-3,4-6,6.9-8.9c2.7-2.7,5.5-4.8,8.5-6.9c-0.1,1.5-0.1,2.8,0.2,4.4
	c0.3,2,0.9,3.4,1.9,4.3c2.5,1.9,5.3,2.4,8.8,1.6c3.3-0.7,6.6-2.1,9.9-4c1.3-0.8,2.5-1.5,3.6-2.2c-1.5,2.6-2.6,5.3-3.3,8.3
	c-0.3,2,0.3,3.3,1.9,4c1.6,0.6,3.1,0.2,4.5-1.1c2.4-2.7,4.7-5.5,6.8-8.4c0.9,3.1,2.5,5.1,4.8,5.9c2.8,1,8.2,0.5,11.5-0.7
	c3.1-1.1,6.3-2.8,9.7-5c0.1-0.1,0.2-0.2,0.3-0.2c0.1-0.1,0.2-0.1,0.3-0.2c1.3-0.9,2.7-1.8,4-2.9c1.2-0.9,2.3-2.1,3.3-3.4
	c0.1,0,0.1-0.1,0.2-0.2C283.5,59.8,283.5,59.5,283.4,59.3z"/>
<path id="e_1_" fill="#3D3D3C" d="M142.1,13c-0.2-0.7-0.6-1.3-1-1.7c-0.4-0.5-1-0.9-1.8-1.3c-0.3-0.2-0.6-0.3-0.7-0.3
	c-0.1,0-0.2-0.1-0.2-0.1l-0.1,0c-1.5-0.6-3.1-0.9-4.7-1.1c-4.4-0.3-8.9-0.3-13.2,0.1c-4.8,0.4-9.4,1.1-13,1.6
	C93.1,12.4,80.2,17,66.5,24.8l0,0C52.5,33,41.9,42,34.3,52.3c-2,2.7-3.7,5.6-4.9,8.6c-0.4,0.9-0.8,2.2-1.1,3.5
	c-8.7,1.7-17,3.1-25.6,4.3l-0.3,0l-0.2,1.5l0.4-0.1c8.5-1.2,17-2.5,25.2-4c-0.2,1.5-0.2,2.8-0.1,4.2c0.2,2.5,1,4.9,2.5,7.1
	c1.5,2.2,3.6,3.9,6.2,5.1c2.5,1,5,1.6,7.6,1.8c2.1,0.1,4.9-0.3,7.6-0.7c-3.1,2.1-6.7,4.7-9.2,7.1c-2.8,2.6-5,5.4-6.5,8.1
	c-1.5,2.8-1.8,5.4-0.9,7.8l0,0l0,0c0.8,1.9,2.3,3.3,4.5,4.3c2.4,0.9,5.1,1.3,8.1,1.3c1.2,0,2.5-0.1,3.8-0.2
	c4.6-0.5,9.3-1.6,14.1-3.1c4.9-1.6,9.5-3.4,13.7-5.3c4.6-2.2,8-3.9,10.6-5.5c0.1,0,0.1-0.1,0.2-0.1c0.1,0,0.2-0.1,0.2-0.1
	c2.2-1.3,4.3-2.7,6.3-4.2c2.1-1.5,3.8-3.2,5.3-5.2l0-0.1c0.2-0.5,0.2-0.9,0.1-1.3c-0.1-0.4-0.2-0.7-0.5-1l0,0l-0.1-0.1
	c-0.6-0.5-1.4-0.8-2.2-0.7c-0.9,0.1-1.6,0.5-2.1,1.4l0,0c-1.2,2.4-3.1,4.5-5.4,6.5c-2.3,1.9-4.9,3.6-7.9,5.2
	c-2.8,1.5-5.6,2.9-8.3,4.1c-4.3,1.8-8.8,3.4-13.6,4.8c-4.7,1.3-9.4,2-14.4,2.2c-1.9,0-3.8-0.2-5.7-0.8c-1.8-0.6-3-1.6-3.7-3.1
	c-0.6-2.1,0-4.5,1.9-7.1c1.9-2.7,4.6-5.3,7.8-7.8c3.2-2.5,6.5-4.8,10.1-6.8c3.3-1.9,6.3-3.3,8.7-4.3l0.4-0.1l0.1,0l2.4-1
	c0.7-0.2,1.1-0.6,1.4-1.2c0.3-0.6,0.3-1.2,0-1.7c-0.3-0.6-0.8-1-1.4-1.2c-0.6-0.3-1.3-0.2-2,0c-3.3,1.2-9.4,3.3-13.1,4.2
	c-3.7,0.9-7.3,1.2-10.7,1c-3.4-0.3-6-1.4-7.9-3.3c-1.8-1.9-2.8-4.3-3-7.2c-0.1-1.4,0.1-2.6,0.4-3.9c29-5.7,54-13.5,74.2-23
	c19.1-9,27.6-16.9,29.7-19.1C141,18.8,142.7,15.5,142.1,13z M137.5,16.4c-0.6,1.8-2.4,4.8-7.8,9c-14.8,11.6-47.8,27.7-96.1,37.9
	c0.5-1.4,1.1-2.9,2-4.4c7.4-12,17.6-22,30.1-29.9c12.6-8,26.8-13.3,42.1-15.9c3.5-0.6,7.3-1.1,11.5-1.5c2.1-0.2,4.4-0.3,7.2-0.4
	c0.3,0,0.5,0,0.8,0c2.1,0,4.2,0.2,6.3,0.6c0.9,0.2,1.9,0.5,3,1.1c0.6,0.3,0.8,0.6,1,1c0,0,0,0,0,0l0,0c0,0,0,0.1,0,0.1
	c0.1,0.1,0.1,0.3,0.1,0.5C137.8,14.8,137.8,15.4,137.5,16.4z M138.2,9.7L138.2,9.7L138.2,9.7L138.2,9.7z"/>
<path id="c" fill="#3D3D3C" d="M123.6,93.8c-0.5-0.4-0.7-1-0.7-1.7c0-0.7,0.2-1.3,0.7-1.7c0.5-0.5,1.1-0.7,1.8-0.7
	c0.7,0,1.4,0.2,2,0.6v-1.5c-0.6-0.4-1.3-0.5-2-0.5c-1.2,0-2.1,0.4-3,1.1c-0.8,0.7-1.2,1.6-1.2,2.8c0,1.1,0.4,2.1,1.2,2.8
	c0.7,0.7,1.8,1.1,2.9,1c0.8,0,1.6-0.2,2.1-0.6v-1.5c-0.5,0.4-1.3,0.6-2.1,0.6C124.7,94.4,124.1,94.2,123.6,93.8z"/>
<path id="l" fill="#3D3D3C" d="M145.8,88.3h-1.8v7.6h6.2v-1.4h-4.4V88.3z"/>
<path id="o" fill="#3D3D3C" d="M168.9,88.3c-1.2,0-2.2,0.4-3,1.1c-0.8,0.7-1.2,1.6-1.2,2.7c0,1.1,0.4,2,1.2,2.7
	c0.8,0.8,1.8,1.1,3,1.1c1.2,0,2.2-0.4,3-1.1c0.8-0.7,1.2-1.6,1.2-2.7c0-1.1-0.4-2-1.2-2.7C171.1,88.6,170.1,88.3,168.9,88.3z
	 M170.7,93.8c-0.5,0.5-1.1,0.7-1.8,0.7c-0.7,0-1.3-0.3-1.8-0.7c-0.5-0.4-0.7-1-0.7-1.7c0-0.7,0.2-1.3,0.7-1.7
	c0.5-0.5,1.1-0.7,1.8-0.7c0.7,0,1.3,0.3,1.8,0.7c0.5,0.4,0.7,1,0.7,1.7C171.4,92.8,171.2,93.3,170.7,93.8z"/>
<path id="t" fill="#3D3D3C" d="M187.5,89.7h2.4v6.2h1.5v-6.2h2.4v-1.4h-6.2V89.7z"/>
<path id="h" fill="#3D3D3C" d="M215.1,91.1h-3.3v-2.9h-1.5v7.6h1.5v-3.3h3.3v3.3h1.5v-7.6h-1.5V91.1z"/>
<path id="e" fill="#3D3D3C" d="M234.8,92.5h3.6v-1.4h-3.6v-1.5h4.4v-1.4h-6.1v7.5v0.1h6.2v-1.4h-4.5V92.5z"/>
<path id="s" fill="#3D3D3C" d="M257.4,91.3c-0.2-0.1-0.6-0.1-0.9-0.2c-0.2-0.1-0.5-0.1-0.6-0.2c-0.2-0.1-0.4-0.3-0.4-0.5
	c0-0.5,0.5-0.7,1.5-0.7c1,0,1.9,0.2,2.7,0.7v-1.5c-0.9-0.4-1.8-0.6-2.7-0.6c-1,0-1.8,0.2-2.3,0.6c-0.5,0.4-0.8,0.9-0.8,1.5
	c0,0.3,0.2,0.7,0.3,1c0.2,0.3,0.6,0.5,0.8,0.6c0.2,0.1,0.3,0.1,0.6,0.2c0.2,0.1,0.5,0.2,0.6,0.2l0.6,0.2l0.6,0.2l0.3,0.1
	c0.2,0.1,0.3,0.1,0.5,0.2c0.2,0.1,0.4,0.3,0.4,0.6c0,0.6-0.7,0.8-1.6,0.8c-0.6,0-1.1-0.1-1.7-0.3c-0.6-0.2-1-0.4-1.4-0.7v1.5
	c0.8,0.6,1.9,0.8,2.8,0.8c0.9,0,1.7-0.2,2.3-0.6c0.6-0.4,1-1,1-1.7c0-0.7-0.3-1.2-0.8-1.5C258.7,91.7,258.2,91.5,257.4,91.3z"/>
</svg>
