<svg width="167" height="70" viewBox="0 0 167 70" fill="none" xmlns="http://www.w3.org/2000/svg">
<mask id="path-1-outside-1_1815_19764" maskUnits="userSpaceOnUse" x="48.1123" y="31.1836" width="119" height="16" fill="black">
<rect fill="white" x="48.1123" y="31.1836" width="119" height="16"/>
<path d="M166.757 35.3944C166.663 35.3065 166.57 35.2186 166.431 35.2186C166.291 35.2186 166.198 35.2626 166.105 35.3944C165.546 36.1416 164.894 36.8008 164.102 37.3721C162.565 38.5148 160.795 39.5695 158.793 40.5803C155.206 42.3822 152.878 42.4262 151.015 42.1625C149.618 41.9867 148.966 40.844 148.779 39.6574C148.593 38.4708 148.686 37.2842 149.105 36.1855C149.105 35.8339 149.012 35.5263 148.733 35.3065C148.453 35.0868 148.127 34.9989 147.801 34.9989C147.429 34.9989 147.196 35.3065 147.056 35.746C146.078 38.7345 143.843 41.8109 141.98 42.3383C142.306 40.844 143.516 38.4269 144.495 37.1524C145.473 35.8779 146.823 34.7352 148.314 34.2518C148.546 34.1639 149.012 33.5926 149.012 33.197C149.012 32.8015 149.198 32.5817 148.872 32.3181C148.546 32.0544 148.034 32.2302 147.568 32.406C146.357 32.8894 145.333 33.5486 144.541 34.3397C143.889 34.955 143.284 35.6142 142.771 36.3174C141.7 37.2403 140.536 38.0313 139.232 38.6906C139.092 38.7785 138.906 38.8663 138.766 38.9542C137.881 39.4377 136.856 39.9211 135.646 40.4045C134.481 40.888 133.27 41.1517 132.106 41.2396C130.942 41.3275 129.917 40.9759 129.079 40.2287C128.66 39.7014 128.613 39.0421 128.753 38.4269C128.846 37.8116 129.032 37.1963 129.265 36.5371C129.498 35.9658 129.638 35.4384 129.731 34.8671C129.824 34.2957 129.777 33.7684 129.591 33.2849C129.451 32.9773 129.265 32.7575 129.079 32.6257C128.892 32.4939 128.66 32.5378 128.427 32.7136C126.564 34.2518 124.747 35.8339 123.024 37.5479C121.72 38.7785 120.416 40.009 119.112 41.1517C119.205 40.844 119.345 40.5364 119.438 40.2287C119.904 38.9103 120.276 37.5479 120.602 36.2295C120.696 35.746 120.509 35.5263 120.137 35.3065C119.811 35.0868 119.531 34.8671 119.112 34.955C118.693 35.0429 118.413 35.3065 118.274 35.79C118.274 35.8339 118.227 35.8779 118.227 35.9218C117.063 36.9766 115.712 37.8555 114.222 38.6466C114.082 38.7345 113.896 38.8224 113.803 38.9103C112.918 39.3937 111.334 40.5803 110.17 41.0638C108.959 41.5472 108.493 42.0306 106.863 42.0746C105.699 42.1185 104.814 41.5032 104.209 40.5364C103.883 39.9651 103.696 38.7785 103.789 38.1192C103.883 37.504 103.883 36.9326 104.115 36.3174C104.348 35.746 104.628 35.3944 104.721 34.8231C104.814 34.2518 104.767 33.7244 104.535 33.241C104.395 32.9333 104.209 32.7136 104.022 32.5817C103.836 32.4499 103.603 32.4939 103.37 32.6696C101.507 34.2078 99.691 35.79 97.9678 37.504C96.6637 38.7345 95.4062 39.9651 94.0556 41.1077C94.1487 40.8001 94.2419 40.4924 94.3816 40.1848C94.8473 38.8664 95.2199 37.504 95.5459 36.1855C95.6391 35.7021 95.5459 35.3505 95.1734 35.1307C94.8473 34.911 94.4748 34.8231 94.0556 34.911C93.6364 34.9989 93.357 35.2626 93.2173 35.746C93.2173 35.8339 93.1707 35.9218 93.1241 36.0537C92.6584 36.581 92.1461 37.0645 91.5406 37.46C90.0037 38.6027 88.2339 39.6574 86.2313 40.6682C84.2286 41.679 82.2725 42.2064 80.3165 42.2064C79.0124 41.723 78.2672 40.888 78.0809 39.7014C77.8946 38.5148 77.9878 37.3282 78.4069 36.2295C78.4069 35.8779 78.3138 35.5702 78.0344 35.3505C77.7549 35.1307 77.4755 35.0429 77.1029 35.0429C76.7303 35.0429 76.3577 35.1307 76.218 35.5263C75.4263 38.0753 73.1907 42.3822 71.7935 42.3822C70.7223 41.9427 72.6784 38.5587 73.6565 37.2403C74.6345 35.9658 76.2646 34.5155 77.7083 34.1639C78.1741 33.9881 78.4069 33.9881 78.4535 33.5926C78.4535 33.197 78.3138 32.8454 78.0344 32.5817C77.7083 32.3181 77.3358 32.2302 76.87 32.406C75.6591 32.8894 74.1688 34.2078 73.377 34.9989C70.8155 37.46 69.6046 39.7453 68.8128 43.1293C68.7663 43.5249 68.7663 43.8764 68.8128 44.1841C67.6951 43.7886 63.55 42.5141 60.2899 42.6459C58.0544 42.7777 53.071 44.3599 51.767 44.7115C52.5122 43.6128 53.4902 42.6459 54.5148 41.4153C55.2134 40.6243 56.4243 39.4377 57.2161 38.8224C59.3584 37.1524 61.6405 35.79 63.8761 34.7792C64.2486 34.5155 64.5747 34.3397 64.5281 34.032C64.4815 33.7244 64.1555 33.3289 63.8295 33.1531C63.5035 32.9333 63.0843 32.8454 62.6186 32.9773C60.7091 33.5486 59.8707 34.032 58.0078 34.6034C57.2626 34.8231 56.4243 35.1747 55.6791 35.3505L53.6299 35.79C52.7916 36.0097 51.1615 36.0537 50.7889 36.2295C50.4164 36.4492 51.3013 37.1084 51.6273 37.3721C51.9533 37.6797 52.2327 37.8555 52.8382 37.7237C54.5148 37.3282 56.238 36.8887 57.9147 36.4052C58.3338 36.2734 58.7064 36.1416 59.079 36.0537C54.8874 39.2179 50.5561 44.0962 49.252 45.7223C49.0657 45.986 49.0657 46.2057 49.252 46.3375C49.4383 46.4694 49.7643 46.6012 50.1369 46.6452C50.7889 46.7331 51.4875 46.6452 52.1396 46.4255C52.8382 46.2057 53.4902 45.942 54.1422 45.5904C54.8874 45.2388 58.427 43.8325 59.2187 43.6567C63.4103 42.602 68.9526 44.8433 69.884 45.107C70.7223 45.4146 71.5141 45.1949 72.2593 44.4478C73.7496 42.7777 75.1468 41.0198 76.4509 39.174C76.9632 41.2396 77.8946 42.4701 79.2453 42.8656C80.5493 43.2612 82.1328 43.1733 83.9492 42.4701C85.7655 41.8109 87.6285 40.844 89.5846 39.5695C89.7243 39.4816 89.8174 39.3937 89.9571 39.3058C90.7489 38.7785 91.5406 38.2511 92.2858 37.6358C92.4255 37.504 92.6118 37.3721 92.7515 37.2403C92.705 37.3282 92.705 37.4161 92.6584 37.504V37.5479C92.4721 38.1192 92.2858 38.7345 92.0995 39.3058C91.5872 40.8001 91.1215 42.2943 90.7955 43.7886C90.7023 44.1401 90.7955 44.4478 91.0283 44.7115C91.2612 44.9752 91.5406 45.107 91.9132 45.107C92.2858 45.107 92.5652 44.9752 92.8447 44.7115C93.8227 42.9535 95.1733 41.1956 96.8966 39.4816C98.6198 37.7676 100.39 36.2295 102.253 34.911C102.113 35.9658 102.113 37.0205 102.253 38.1192C102.439 39.2179 102.485 40.2727 103.37 41.3714C104.767 42.4262 106.211 42.6898 108.121 42.2504C110.03 41.8109 112.079 40.1848 113.942 39.0861C115.479 38.2071 116.783 37.3721 117.901 36.625C117.808 36.9326 117.715 37.1963 117.622 37.504V37.5479C117.435 38.1192 117.249 38.7345 117.063 39.3058C116.551 40.8001 116.085 42.2943 115.712 43.7886C115.619 44.1401 115.712 44.4478 115.945 44.7115C116.178 44.9752 116.457 44.9752 116.83 45.0191C117.203 45.0191 117.529 45.0191 117.761 44.7554C118.739 42.9975 120.09 41.2396 121.813 39.5256C123.537 37.8116 125.306 36.5371 127.169 35.1747C127.03 36.2295 127.03 37.0645 127.216 38.1632C127.402 39.2619 127.728 40.053 128.24 40.5803C129.638 41.6351 131.268 41.9427 133.224 41.5032C135.18 41.0638 137.089 40.2727 138.952 39.174C139.977 38.5587 140.908 37.9874 141.747 37.46C140.676 39.13 139.884 40.9759 139.418 42.9535C139.232 44.0522 139.558 44.7115 140.396 45.0631C141.234 45.3707 142.026 45.1949 142.818 44.4478C144.308 42.7777 145.705 41.0198 147.009 39.174C147.522 41.2396 148.5 42.4262 149.804 42.9096C151.434 43.5249 154.601 43.1293 156.417 42.4701C158.234 41.8109 160.097 40.844 162.053 39.5695C162.192 39.4816 162.286 39.3937 162.425 39.3058C163.217 38.7785 164.009 38.2511 164.754 37.6358C165.499 37.0645 166.151 36.3613 166.71 35.6142C166.803 35.6142 166.803 35.4823 166.757 35.3944Z"/>
</mask>
<path d="M166.757 35.3944C166.663 35.3065 166.57 35.2186 166.431 35.2186C166.291 35.2186 166.198 35.2626 166.105 35.3944C165.546 36.1416 164.894 36.8008 164.102 37.3721C162.565 38.5148 160.795 39.5695 158.793 40.5803C155.206 42.3822 152.878 42.4262 151.015 42.1625C149.618 41.9867 148.966 40.844 148.779 39.6574C148.593 38.4708 148.686 37.2842 149.105 36.1855C149.105 35.8339 149.012 35.5263 148.733 35.3065C148.453 35.0868 148.127 34.9989 147.801 34.9989C147.429 34.9989 147.196 35.3065 147.056 35.746C146.078 38.7345 143.843 41.8109 141.98 42.3383C142.306 40.844 143.516 38.4269 144.495 37.1524C145.473 35.8779 146.823 34.7352 148.314 34.2518C148.546 34.1639 149.012 33.5926 149.012 33.197C149.012 32.8015 149.198 32.5817 148.872 32.3181C148.546 32.0544 148.034 32.2302 147.568 32.406C146.357 32.8894 145.333 33.5486 144.541 34.3397C143.889 34.955 143.284 35.6142 142.771 36.3174C141.7 37.2403 140.536 38.0313 139.232 38.6906C139.092 38.7785 138.906 38.8663 138.766 38.9542C137.881 39.4377 136.856 39.9211 135.646 40.4045C134.481 40.888 133.27 41.1517 132.106 41.2396C130.942 41.3275 129.917 40.9759 129.079 40.2287C128.66 39.7014 128.613 39.0421 128.753 38.4269C128.846 37.8116 129.032 37.1963 129.265 36.5371C129.498 35.9658 129.638 35.4384 129.731 34.8671C129.824 34.2957 129.777 33.7684 129.591 33.2849C129.451 32.9773 129.265 32.7575 129.079 32.6257C128.892 32.4939 128.66 32.5378 128.427 32.7136C126.564 34.2518 124.747 35.8339 123.024 37.5479C121.72 38.7785 120.416 40.009 119.112 41.1517C119.205 40.844 119.345 40.5364 119.438 40.2287C119.904 38.9103 120.276 37.5479 120.602 36.2295C120.696 35.746 120.509 35.5263 120.137 35.3065C119.811 35.0868 119.531 34.8671 119.112 34.955C118.693 35.0429 118.413 35.3065 118.274 35.79C118.274 35.8339 118.227 35.8779 118.227 35.9218C117.063 36.9766 115.712 37.8555 114.222 38.6466C114.082 38.7345 113.896 38.8224 113.803 38.9103C112.918 39.3937 111.334 40.5803 110.17 41.0638C108.959 41.5472 108.493 42.0306 106.863 42.0746C105.699 42.1185 104.814 41.5032 104.209 40.5364C103.883 39.9651 103.696 38.7785 103.789 38.1192C103.883 37.504 103.883 36.9326 104.115 36.3174C104.348 35.746 104.628 35.3944 104.721 34.8231C104.814 34.2518 104.767 33.7244 104.535 33.241C104.395 32.9333 104.209 32.7136 104.022 32.5817C103.836 32.4499 103.603 32.4939 103.37 32.6696C101.507 34.2078 99.691 35.79 97.9678 37.504C96.6637 38.7345 95.4062 39.9651 94.0556 41.1077C94.1487 40.8001 94.2419 40.4924 94.3816 40.1848C94.8473 38.8664 95.2199 37.504 95.5459 36.1855C95.6391 35.7021 95.5459 35.3505 95.1734 35.1307C94.8473 34.911 94.4748 34.8231 94.0556 34.911C93.6364 34.9989 93.357 35.2626 93.2173 35.746C93.2173 35.8339 93.1707 35.9218 93.1241 36.0537C92.6584 36.581 92.1461 37.0645 91.5406 37.46C90.0037 38.6027 88.2339 39.6574 86.2313 40.6682C84.2286 41.679 82.2725 42.2064 80.3165 42.2064C79.0124 41.723 78.2672 40.888 78.0809 39.7014C77.8946 38.5148 77.9878 37.3282 78.4069 36.2295C78.4069 35.8779 78.3138 35.5702 78.0344 35.3505C77.7549 35.1307 77.4755 35.0429 77.1029 35.0429C76.7303 35.0429 76.3577 35.1307 76.218 35.5263C75.4263 38.0753 73.1907 42.3822 71.7935 42.3822C70.7223 41.9427 72.6784 38.5587 73.6565 37.2403C74.6345 35.9658 76.2646 34.5155 77.7083 34.1639C78.1741 33.9881 78.4069 33.9881 78.4535 33.5926C78.4535 33.197 78.3138 32.8454 78.0344 32.5817C77.7083 32.3181 77.3358 32.2302 76.87 32.406C75.6591 32.8894 74.1688 34.2078 73.377 34.9989C70.8155 37.46 69.6046 39.7453 68.8128 43.1293C68.7663 43.5249 68.7663 43.8764 68.8128 44.1841C67.6951 43.7886 63.55 42.5141 60.2899 42.6459C58.0544 42.7777 53.071 44.3599 51.767 44.7115C52.5122 43.6128 53.4902 42.6459 54.5148 41.4153C55.2134 40.6243 56.4243 39.4377 57.2161 38.8224C59.3584 37.1524 61.6405 35.79 63.8761 34.7792C64.2486 34.5155 64.5747 34.3397 64.5281 34.032C64.4815 33.7244 64.1555 33.3289 63.8295 33.1531C63.5035 32.9333 63.0843 32.8454 62.6186 32.9773C60.7091 33.5486 59.8707 34.032 58.0078 34.6034C57.2626 34.8231 56.4243 35.1747 55.6791 35.3505L53.6299 35.79C52.7916 36.0097 51.1615 36.0537 50.7889 36.2295C50.4164 36.4492 51.3013 37.1084 51.6273 37.3721C51.9533 37.6797 52.2327 37.8555 52.8382 37.7237C54.5148 37.3282 56.238 36.8887 57.9147 36.4052C58.3338 36.2734 58.7064 36.1416 59.079 36.0537C54.8874 39.2179 50.5561 44.0962 49.252 45.7223C49.0657 45.986 49.0657 46.2057 49.252 46.3375C49.4383 46.4694 49.7643 46.6012 50.1369 46.6452C50.7889 46.7331 51.4875 46.6452 52.1396 46.4255C52.8382 46.2057 53.4902 45.942 54.1422 45.5904C54.8874 45.2388 58.427 43.8325 59.2187 43.6567C63.4103 42.602 68.9526 44.8433 69.884 45.107C70.7223 45.4146 71.5141 45.1949 72.2593 44.4478C73.7496 42.7777 75.1468 41.0198 76.4509 39.174C76.9632 41.2396 77.8946 42.4701 79.2453 42.8656C80.5493 43.2612 82.1328 43.1733 83.9492 42.4701C85.7655 41.8109 87.6285 40.844 89.5846 39.5695C89.7243 39.4816 89.8174 39.3937 89.9571 39.3058C90.7489 38.7785 91.5406 38.2511 92.2858 37.6358C92.4255 37.504 92.6118 37.3721 92.7515 37.2403C92.705 37.3282 92.705 37.4161 92.6584 37.504V37.5479C92.4721 38.1192 92.2858 38.7345 92.0995 39.3058C91.5872 40.8001 91.1215 42.2943 90.7955 43.7886C90.7023 44.1401 90.7955 44.4478 91.0283 44.7115C91.2612 44.9752 91.5406 45.107 91.9132 45.107C92.2858 45.107 92.5652 44.9752 92.8447 44.7115C93.8227 42.9535 95.1733 41.1956 96.8966 39.4816C98.6198 37.7676 100.39 36.2295 102.253 34.911C102.113 35.9658 102.113 37.0205 102.253 38.1192C102.439 39.2179 102.485 40.2727 103.37 41.3714C104.767 42.4262 106.211 42.6898 108.121 42.2504C110.03 41.8109 112.079 40.1848 113.942 39.0861C115.479 38.2071 116.783 37.3721 117.901 36.625C117.808 36.9326 117.715 37.1963 117.622 37.504V37.5479C117.435 38.1192 117.249 38.7345 117.063 39.3058C116.551 40.8001 116.085 42.2943 115.712 43.7886C115.619 44.1401 115.712 44.4478 115.945 44.7115C116.178 44.9752 116.457 44.9752 116.83 45.0191C117.203 45.0191 117.529 45.0191 117.761 44.7554C118.739 42.9975 120.09 41.2396 121.813 39.5256C123.537 37.8116 125.306 36.5371 127.169 35.1747C127.03 36.2295 127.03 37.0645 127.216 38.1632C127.402 39.2619 127.728 40.053 128.24 40.5803C129.638 41.6351 131.268 41.9427 133.224 41.5032C135.18 41.0638 137.089 40.2727 138.952 39.174C139.977 38.5587 140.908 37.9874 141.747 37.46C140.676 39.13 139.884 40.9759 139.418 42.9535C139.232 44.0522 139.558 44.7115 140.396 45.0631C141.234 45.3707 142.026 45.1949 142.818 44.4478C144.308 42.7777 145.705 41.0198 147.009 39.174C147.522 41.2396 148.5 42.4262 149.804 42.9096C151.434 43.5249 154.601 43.1293 156.417 42.4701C158.234 41.8109 160.097 40.844 162.053 39.5695C162.192 39.4816 162.286 39.3937 162.425 39.3058C163.217 38.7785 164.009 38.2511 164.754 37.6358C165.499 37.0645 166.151 36.3613 166.71 35.6142C166.803 35.6142 166.803 35.4823 166.757 35.3944Z" fill="#3D3D3C"/>
<path d="M166.757 35.3944C166.663 35.3065 166.57 35.2186 166.431 35.2186C166.291 35.2186 166.198 35.2626 166.105 35.3944C165.546 36.1416 164.894 36.8008 164.102 37.3721C162.565 38.5148 160.795 39.5695 158.793 40.5803C155.206 42.3822 152.878 42.4262 151.015 42.1625C149.618 41.9867 148.966 40.844 148.779 39.6574C148.593 38.4708 148.686 37.2842 149.105 36.1855C149.105 35.8339 149.012 35.5263 148.733 35.3065C148.453 35.0868 148.127 34.9989 147.801 34.9989C147.429 34.9989 147.196 35.3065 147.056 35.746C146.078 38.7345 143.843 41.8109 141.98 42.3383C142.306 40.844 143.516 38.4269 144.495 37.1524C145.473 35.8779 146.823 34.7352 148.314 34.2518C148.546 34.1639 149.012 33.5926 149.012 33.197C149.012 32.8015 149.198 32.5817 148.872 32.3181C148.546 32.0544 148.034 32.2302 147.568 32.406C146.357 32.8894 145.333 33.5486 144.541 34.3397C143.889 34.955 143.284 35.6142 142.771 36.3174C141.7 37.2403 140.536 38.0313 139.232 38.6906C139.092 38.7785 138.906 38.8663 138.766 38.9542C137.881 39.4377 136.856 39.9211 135.646 40.4045C134.481 40.888 133.27 41.1517 132.106 41.2396C130.942 41.3275 129.917 40.9759 129.079 40.2287C128.66 39.7014 128.613 39.0421 128.753 38.4269C128.846 37.8116 129.032 37.1963 129.265 36.5371C129.498 35.9658 129.638 35.4384 129.731 34.8671C129.824 34.2957 129.777 33.7684 129.591 33.2849C129.451 32.9773 129.265 32.7575 129.079 32.6257C128.892 32.4939 128.66 32.5378 128.427 32.7136C126.564 34.2518 124.747 35.8339 123.024 37.5479C121.72 38.7785 120.416 40.009 119.112 41.1517C119.205 40.844 119.345 40.5364 119.438 40.2287C119.904 38.9103 120.276 37.5479 120.602 36.2295C120.696 35.746 120.509 35.5263 120.137 35.3065C119.811 35.0868 119.531 34.8671 119.112 34.955C118.693 35.0429 118.413 35.3065 118.274 35.79C118.274 35.8339 118.227 35.8779 118.227 35.9218C117.063 36.9766 115.712 37.8555 114.222 38.6466C114.082 38.7345 113.896 38.8224 113.803 38.9103C112.918 39.3937 111.334 40.5803 110.17 41.0638C108.959 41.5472 108.493 42.0306 106.863 42.0746C105.699 42.1185 104.814 41.5032 104.209 40.5364C103.883 39.9651 103.696 38.7785 103.789 38.1192C103.883 37.504 103.883 36.9326 104.115 36.3174C104.348 35.746 104.628 35.3944 104.721 34.8231C104.814 34.2518 104.767 33.7244 104.535 33.241C104.395 32.9333 104.209 32.7136 104.022 32.5817C103.836 32.4499 103.603 32.4939 103.37 32.6696C101.507 34.2078 99.691 35.79 97.9678 37.504C96.6637 38.7345 95.4062 39.9651 94.0556 41.1077C94.1487 40.8001 94.2419 40.4924 94.3816 40.1848C94.8473 38.8664 95.2199 37.504 95.5459 36.1855C95.6391 35.7021 95.5459 35.3505 95.1734 35.1307C94.8473 34.911 94.4748 34.8231 94.0556 34.911C93.6364 34.9989 93.357 35.2626 93.2173 35.746C93.2173 35.8339 93.1707 35.9218 93.1241 36.0537C92.6584 36.581 92.1461 37.0645 91.5406 37.46C90.0037 38.6027 88.2339 39.6574 86.2313 40.6682C84.2286 41.679 82.2725 42.2064 80.3165 42.2064C79.0124 41.723 78.2672 40.888 78.0809 39.7014C77.8946 38.5148 77.9878 37.3282 78.4069 36.2295C78.4069 35.8779 78.3138 35.5702 78.0344 35.3505C77.7549 35.1307 77.4755 35.0429 77.1029 35.0429C76.7303 35.0429 76.3577 35.1307 76.218 35.5263C75.4263 38.0753 73.1907 42.3822 71.7935 42.3822C70.7223 41.9427 72.6784 38.5587 73.6565 37.2403C74.6345 35.9658 76.2646 34.5155 77.7083 34.1639C78.1741 33.9881 78.4069 33.9881 78.4535 33.5926C78.4535 33.197 78.3138 32.8454 78.0344 32.5817C77.7083 32.3181 77.3358 32.2302 76.87 32.406C75.6591 32.8894 74.1688 34.2078 73.377 34.9989C70.8155 37.46 69.6046 39.7453 68.8128 43.1293C68.7663 43.5249 68.7663 43.8764 68.8128 44.1841C67.6951 43.7886 63.55 42.5141 60.2899 42.6459C58.0544 42.7777 53.071 44.3599 51.767 44.7115C52.5122 43.6128 53.4902 42.6459 54.5148 41.4153C55.2134 40.6243 56.4243 39.4377 57.2161 38.8224C59.3584 37.1524 61.6405 35.79 63.8761 34.7792C64.2486 34.5155 64.5747 34.3397 64.5281 34.032C64.4815 33.7244 64.1555 33.3289 63.8295 33.1531C63.5035 32.9333 63.0843 32.8454 62.6186 32.9773C60.7091 33.5486 59.8707 34.032 58.0078 34.6034C57.2626 34.8231 56.4243 35.1747 55.6791 35.3505L53.6299 35.79C52.7916 36.0097 51.1615 36.0537 50.7889 36.2295C50.4164 36.4492 51.3013 37.1084 51.6273 37.3721C51.9533 37.6797 52.2327 37.8555 52.8382 37.7237C54.5148 37.3282 56.238 36.8887 57.9147 36.4052C58.3338 36.2734 58.7064 36.1416 59.079 36.0537C54.8874 39.2179 50.5561 44.0962 49.252 45.7223C49.0657 45.986 49.0657 46.2057 49.252 46.3375C49.4383 46.4694 49.7643 46.6012 50.1369 46.6452C50.7889 46.7331 51.4875 46.6452 52.1396 46.4255C52.8382 46.2057 53.4902 45.942 54.1422 45.5904C54.8874 45.2388 58.427 43.8325 59.2187 43.6567C63.4103 42.602 68.9526 44.8433 69.884 45.107C70.7223 45.4146 71.5141 45.1949 72.2593 44.4478C73.7496 42.7777 75.1468 41.0198 76.4509 39.174C76.9632 41.2396 77.8946 42.4701 79.2453 42.8656C80.5493 43.2612 82.1328 43.1733 83.9492 42.4701C85.7655 41.8109 87.6285 40.844 89.5846 39.5695C89.7243 39.4816 89.8174 39.3937 89.9571 39.3058C90.7489 38.7785 91.5406 38.2511 92.2858 37.6358C92.4255 37.504 92.6118 37.3721 92.7515 37.2403C92.705 37.3282 92.705 37.4161 92.6584 37.504V37.5479C92.4721 38.1192 92.2858 38.7345 92.0995 39.3058C91.5872 40.8001 91.1215 42.2943 90.7955 43.7886C90.7023 44.1401 90.7955 44.4478 91.0283 44.7115C91.2612 44.9752 91.5406 45.107 91.9132 45.107C92.2858 45.107 92.5652 44.9752 92.8447 44.7115C93.8227 42.9535 95.1733 41.1956 96.8966 39.4816C98.6198 37.7676 100.39 36.2295 102.253 34.911C102.113 35.9658 102.113 37.0205 102.253 38.1192C102.439 39.2179 102.485 40.2727 103.37 41.3714C104.767 42.4262 106.211 42.6898 108.121 42.2504C110.03 41.8109 112.079 40.1848 113.942 39.0861C115.479 38.2071 116.783 37.3721 117.901 36.625C117.808 36.9326 117.715 37.1963 117.622 37.504V37.5479C117.435 38.1192 117.249 38.7345 117.063 39.3058C116.551 40.8001 116.085 42.2943 115.712 43.7886C115.619 44.1401 115.712 44.4478 115.945 44.7115C116.178 44.9752 116.457 44.9752 116.83 45.0191C117.203 45.0191 117.529 45.0191 117.761 44.7554C118.739 42.9975 120.09 41.2396 121.813 39.5256C123.537 37.8116 125.306 36.5371 127.169 35.1747C127.03 36.2295 127.03 37.0645 127.216 38.1632C127.402 39.2619 127.728 40.053 128.24 40.5803C129.638 41.6351 131.268 41.9427 133.224 41.5032C135.18 41.0638 137.089 40.2727 138.952 39.174C139.977 38.5587 140.908 37.9874 141.747 37.46C140.676 39.13 139.884 40.9759 139.418 42.9535C139.232 44.0522 139.558 44.7115 140.396 45.0631C141.234 45.3707 142.026 45.1949 142.818 44.4478C144.308 42.7777 145.705 41.0198 147.009 39.174C147.522 41.2396 148.5 42.4262 149.804 42.9096C151.434 43.5249 154.601 43.1293 156.417 42.4701C158.234 41.8109 160.097 40.844 162.053 39.5695C162.192 39.4816 162.286 39.3937 162.425 39.3058C163.217 38.7785 164.009 38.2511 164.754 37.6358C165.499 37.0645 166.151 36.3613 166.71 35.6142C166.803 35.6142 166.803 35.4823 166.757 35.3944Z" stroke="#3D3D3C" stroke-width="0.4" mask="url(#path-1-outside-1_1815_19764)"/>
<path d="M57.7923 51.3514L57.7923 51.3513L57.7903 51.3551C57.066 52.7471 55.9822 54.0425 54.5851 55.1734L54.584 55.1743C53.1796 56.3432 51.626 57.359 49.9596 58.26C48.2908 59.1622 46.6748 59.9615 45.1115 60.6579C42.5144 61.7362 39.8501 62.6669 37.1148 63.4853C34.3473 64.2635 31.5769 64.6858 28.6766 64.7775C27.5673 64.796 26.4356 64.6361 25.322 64.3005C24.2237 63.9695 23.4897 63.3571 23.1087 62.4315C22.727 61.1569 23.1169 59.7238 24.2258 58.1856C25.3392 56.6411 26.8664 55.0912 28.8015 53.607L28.8023 53.6063C30.7437 52.0848 32.703 50.7786 34.7292 49.6201C36.7557 48.4614 38.4549 47.6347 39.831 47.1035L39.9578 47.0609L40.0669 47.0241L40.0873 47.0258L40.112 47.0277L40.1351 47.0179L41.4982 46.441C41.862 46.3177 42.1163 46.1039 42.2423 45.7944C42.3615 45.5017 42.4001 45.1856 42.2444 44.8903L42.2445 44.8902L42.2424 44.8866C42.057 44.569 41.8135 44.3586 41.4772 44.2184C41.1339 44.0754 40.774 44.0866 40.4044 44.2465C38.2918 45.0086 34.8364 46.2043 32.7179 46.7133L32.7173 46.7134C30.6418 47.2251 28.5167 47.448 26.3938 47.2807C24.363 47.085 22.8049 46.3965 21.703 45.2923C20.6039 44.1517 20.022 42.7359 19.9229 41C19.8927 40.1726 19.9743 39.3885 20.1711 38.6145C59.4867 30.8958 76.5202 18.568 81.048 13.9794L81.0487 13.9786C83.942 10.9898 84.3302 9.23122 84.0499 8.19146C83.9593 7.80562 83.7315 7.48915 83.5106 7.22026L83.5096 7.21917C83.2218 6.87936 82.8102 6.62673 82.4766 6.46019C82.3088 6.37643 82.1587 6.31342 82.0503 6.27128C81.9961 6.2502 81.9522 6.23431 81.9218 6.22363C81.9065 6.21829 81.8946 6.21426 81.8864 6.21152L81.8782 6.20891L81.877 6.20839L81.876 6.20808C81.0326 5.88956 80.0951 5.67165 79.1417 5.59647C76.5491 5.39203 73.9745 5.40369 71.4179 5.63151C68.8643 5.85906 66.3408 6.19612 63.815 6.56838L63.814 6.56854C55.0366 7.95056 47.3741 10.9225 39.9499 15.1631L39.9492 15.1635C32.4739 19.5063 25.8916 24.7451 21.0813 31.2365C19.9151 32.7938 18.9433 34.4744 18.211 36.2462L18.2103 36.2478C17.9323 36.9558 17.6954 37.6365 17.5318 38.3564C12.7718 39.2948 7.77501 40.1437 2.46428 40.8617L2.38396 40.8725L2.37531 40.9526L2.3218 41.4483L2.30848 41.5717L2.43222 41.5549C7.72026 40.84 12.6935 40.0302 17.3483 39.1598C17.2259 40.0031 17.1796 40.8539 17.2454 41.7145C17.3401 43.1681 17.8209 44.543 18.6896 45.8026C19.5593 47.0635 20.7506 48.0599 22.2649 48.7563L22.2648 48.7563L22.2683 48.7578C23.6647 49.335 25.1272 49.7024 26.663 49.7875L26.6631 49.7875C28.0255 49.8621 30.0113 49.5683 31.497 49.3364C29.6268 50.6437 27.3113 52.265 25.7461 53.7258C24.0815 55.2793 22.8263 56.868 21.9869 58.4569C21.1445 60.0517 20.9343 61.5657 21.4626 62.9608L21.4625 62.9609L21.4637 62.9637C21.9354 64.0986 22.8244 64.8969 24.0282 65.4267L24.0281 65.4268L24.033 65.4286C25.9611 66.1574 28.2736 66.3743 30.9256 66.0814C33.5737 65.7889 36.3377 65.1835 39.1763 64.2624C42.0124 63.3421 44.6962 62.3023 47.1865 61.1396C49.6738 59.9783 51.738 58.9248 53.3849 57.9086L53.385 57.9088L53.3908 57.9046C53.4292 57.8771 53.4672 57.8568 53.5117 57.8332L53.5137 57.8321C53.5555 57.8099 53.6032 57.7846 53.6524 57.7498C54.9367 56.9929 56.1429 56.1939 57.3157 55.3208C58.4939 54.4437 59.5192 53.4461 60.3946 52.2924L60.4041 52.2799L60.4094 52.2653C60.5024 52.0096 60.5292 51.7786 60.4886 51.5667C60.448 51.3544 60.3415 51.17 60.1823 51.0049L60.1825 51.0047L60.1777 51.0004C59.8554 50.708 59.4294 50.5612 58.9438 50.5984C58.4489 50.6363 58.0636 50.879 57.7923 51.3514ZM81.6912 8.51611C81.6983 8.52959 81.7105 8.55367 81.7249 8.58842C81.7018 8.59725 81.6753 8.60228 81.6618 8.60088C81.6512 8.59806 81.6354 8.59131 81.63 8.5882C81.6267 8.58606 81.6214 8.58219 81.6194 8.58056C81.6156 8.57739 81.613 8.57465 81.6121 8.57377L81.6912 8.51611ZM81.5918 8.54335C81.5931 8.54669 81.5943 8.54903 81.5945 8.54961L81.5946 8.5497L81.5969 8.55432L81.6054 8.57066C81.6124 8.58436 81.6232 8.60654 81.6357 8.63735C81.6606 8.69903 81.6929 8.79639 81.7145 8.93011C81.7577 9.19698 81.7592 9.61261 81.5715 10.1829C81.1953 11.3257 80.0577 13.0934 76.9657 15.5208C68.4458 22.2114 49.4362 31.6756 20.4687 37.773C20.7808 36.7967 21.1947 35.8878 21.6831 34.9828C26.0343 27.9868 31.9178 22.1085 39.3688 17.4216L39.369 17.4214C46.8252 12.6983 55.0568 9.60426 64.0689 8.10442L64.0699 8.10425C66.3042 7.71001 68.5686 7.42497 70.8262 7.21059L70.8269 7.21052C72.2052 7.06993 73.6176 7.00311 75.0276 6.97163C76.4321 6.94028 77.8213 7.0498 79.1954 7.30021C79.7925 7.41746 80.3806 7.63938 80.964 7.93284L80.9655 7.93356C81.2931 8.09145 81.462 8.29981 81.5918 8.54335Z" fill="#3D3D3C" stroke="#3D3D3C" stroke-width="0.2"/>
<path d="M73.306 55.4936C73.0027 55.2438 72.8728 54.9107 72.8728 54.4943C72.8728 54.078 73.0027 53.7449 73.306 53.4951C73.6093 53.2037 73.9559 53.0788 74.3892 53.0788C74.8224 53.0788 75.2124 53.2037 75.559 53.4118V52.5375C75.2124 52.3294 74.8224 52.2461 74.3892 52.2461C73.696 52.2461 73.1327 52.4543 72.6561 52.8706C72.1795 53.2869 71.9629 53.8282 71.9629 54.4943C71.9629 55.1605 72.1795 55.7017 72.6561 56.1181C73.0894 56.5344 73.696 56.7426 74.3459 56.701C74.8224 56.701 75.2557 56.576 75.6023 56.3679V55.4936C75.299 55.7434 74.8658 55.8683 74.3892 55.8683C73.9559 55.8683 73.6093 55.7434 73.306 55.4936Z" fill="#3D3D3C"/>
<path d="M86.3575 52.2461H85.3105V56.7062H88.95V55.8834H86.3575V52.2461Z" fill="#3D3D3C"/>
<path d="M99.8716 52.2461C99.1849 52.2461 98.5898 52.4939 98.132 52.9068C97.6742 53.3198 97.4453 53.8567 97.4453 54.4761C97.4453 55.0956 97.6742 55.6325 98.132 56.0454C98.5898 56.4997 99.1849 56.7062 99.8716 56.7062C100.558 56.7062 101.153 56.4584 101.611 56.0454C102.069 55.6325 102.298 55.0956 102.298 54.4761C102.298 53.8567 102.069 53.3198 101.611 52.9068C101.153 52.4526 100.558 52.2461 99.8716 52.2461ZM100.925 55.4673C100.65 55.7563 100.284 55.8802 99.8716 55.8802C99.4596 55.8802 99.0934 55.715 98.8187 55.4673C98.544 55.2195 98.4067 54.8891 98.4067 54.4761C98.4067 54.0632 98.544 53.7328 98.8187 53.485C99.0934 53.1959 99.4596 53.072 99.8716 53.072C100.284 53.072 100.65 53.2372 100.925 53.485C101.199 53.7328 101.337 54.0632 101.337 54.4761C101.337 54.8891 101.199 55.1782 100.925 55.4673Z" fill="#3D3D3C"/>
<path d="M110.785 53.0688H112.166V56.7062H113.044V53.0688H114.425V52.2461H110.785V53.0688Z" fill="#3D3D3C"/>
<path d="M126.913 53.9349H124.991V52.2461H124.132V56.7062H124.991V54.7576H126.913V56.7062H127.771V52.2461H126.913V53.9349Z" fill="#3D3D3C"/>
<path d="M138.467 54.7334H140.547V53.9186H138.467V53.0609H141.067V52.2461H137.475V56.6633V56.7062H141.114V55.8914H138.467V54.7334Z" fill="#3D3D3C"/>
<path d="M151.734 54.0031C151.593 53.9623 151.356 53.9214 151.214 53.8806C151.12 53.8397 150.931 53.7988 150.836 53.758C150.695 53.6763 150.6 53.5945 150.6 53.4719C150.6 53.1859 150.884 53.0633 151.451 53.0633C152.018 53.0633 152.585 53.1859 153.058 53.4719V52.6139C152.538 52.3687 152.018 52.2461 151.451 52.2461C150.884 52.2461 150.411 52.3687 150.08 52.573C149.796 52.8182 149.607 53.1042 149.607 53.4719C149.607 53.6762 149.702 53.8806 149.796 54.044C149.891 54.2075 150.127 54.33 150.269 54.4118C150.364 54.4526 150.458 54.4526 150.6 54.5343C150.742 54.6161 150.884 54.6569 150.931 54.6569L151.309 54.7795L151.687 54.9021L151.876 54.943C152.018 54.9838 152.065 55.0247 152.16 55.0655C152.302 55.1473 152.396 55.2699 152.396 55.4333C152.396 55.7602 151.971 55.9236 151.451 55.9236C151.12 55.9236 150.789 55.8828 150.458 55.7602C150.127 55.6376 149.844 55.515 149.655 55.3516V56.2505C150.127 56.5774 150.742 56.7409 151.309 56.7C151.829 56.7 152.302 56.5774 152.68 56.3323C153.058 56.0871 153.247 55.7602 153.247 55.3516C153.247 54.943 153.058 54.6569 152.774 54.4526C152.491 54.2483 152.207 54.1257 151.734 54.0031Z" fill="#3D3D3C"/>
</svg>
