<svg width="20" height="20" viewBox="0 0 20 20" fill="none" xmlns="http://www.w3.org/2000/svg">
<path d="M14.0839 11.1971C14.3093 11.1971 14.5034 11.0355 14.5285 10.8201L14.8103 8.56424C14.8416 8.30693 14.6349 8.08553 14.3657 8.08553H11.5479V6.20063C11.5479 5.34495 11.7984 4.76452 13.082 4.76452H14.2718C14.5222 4.76452 14.7226 4.57304 14.7226 4.33369V2.43083C14.7226 2.19148 14.5222 2 14.2718 2H12.3369C9.97621 2 8.36068 3.37628 8.36068 5.90144V8.07955H6.45085C6.20038 8.07955 6 8.27103 6 8.51038L6.00626 10.7663C6.00626 10.9996 6.20664 11.1911 6.45711 11.1911H8.36068L8.34815 18.1623H11.5416L11.5542 11.1911H14.0839V11.1971Z" fill="#909498"/>
</svg>
