<svg width="20" height="20" viewBox="0 0 20 20" fill="none" xmlns="http://www.w3.org/2000/svg">
<path fill-rule="evenodd" clip-rule="evenodd" d="M10 2C7.82734 2 7.5549 2.00921 6.70162 2.04814C5.85011 2.08698 5.26856 2.22223 4.7597 2.42001C4.23363 2.62442 3.78749 2.89797 3.34271 3.34271C2.89796 3.78749 2.62442 4.23363 2.42001 4.7597C2.22223 5.26856 2.08698 5.85011 2.04814 6.70162C2.00921 7.55491 2 7.82734 2 10.0001C2 12.1727 2.00921 12.4451 2.04814 13.2984C2.08698 14.1499 2.22223 14.7315 2.42001 15.2403C2.62442 15.7664 2.89796 16.2126 3.34271 16.6573C3.78749 17.102 4.23363 17.3756 4.7597 17.5801C5.26856 17.7778 5.85011 17.913 6.70162 17.9519C7.5549 17.9908 7.82734 18 10 18C12.1727 18 12.4451 17.9908 13.2984 17.9519C14.1499 17.913 14.7314 17.7778 15.2403 17.5801C15.7664 17.3756 16.2125 17.102 16.6573 16.6573C17.102 16.2126 17.3756 15.7664 17.5801 15.2403C17.7778 14.7315 17.913 14.1499 17.9519 13.2984C17.9908 12.4451 18 12.1727 18 10.0001C18 7.82734 17.9908 7.55491 17.9519 6.70162C17.913 5.85011 17.7778 5.26856 17.5801 4.7597C17.3756 4.23363 17.102 3.78749 16.6573 3.34271C16.2125 2.89797 15.7664 2.62442 15.2403 2.42001C14.7314 2.22223 14.1499 2.08698 13.2984 2.04814C12.4451 2.00921 12.1727 2 10 2ZM7.33334 10.0001C7.33334 11.4728 8.52724 12.6667 10 12.6667C11.4728 12.6667 12.6667 11.4728 12.6667 10.0001C12.6667 8.52724 11.4728 7.33334 10 7.33334C8.52724 7.33334 7.33334 8.52724 7.33334 10.0001ZM5.8919 10.0001C5.8919 7.73115 7.73115 5.8919 10 5.8919C12.2689 5.8919 14.1081 7.73115 14.1081 10.0001C14.1081 12.2688 12.2689 14.1081 10 14.1081C7.73115 14.1081 5.8919 12.2688 5.8919 10.0001ZM14.2704 6.68959C14.8007 6.68959 15.2305 6.2598 15.2305 5.72959C15.2305 5.19939 14.8007 4.76958 14.2704 4.76958C13.7403 4.76958 13.3104 5.19939 13.3104 5.72959C13.3104 6.2598 13.7403 6.68959 14.2704 6.68959Z" fill="#909498"/>
</svg>
