<svg width="20" height="20" viewBox="0 0 20 20" fill="none" xmlns="http://www.w3.org/2000/svg">
<path fill-rule="evenodd" clip-rule="evenodd" d="M6.62293 2.75108C7.943 2.12935 9.44426 1.88325 10.8938 2.05164C12.3562 2.22002 13.7798 2.78994 14.9446 3.70958C16.5365 4.95303 17.6107 6.81822 17.9083 8.79998C18.0765 9.888 18.0118 11.0019 17.7271 12.0641C17.5976 12.5433 17.3258 12.9967 16.9636 13.3334C16.4329 13.8256 15.6952 14.0847 14.9704 14.0328C14.2328 13.9811 13.5209 13.5925 13.068 12.9967C12.6797 12.4785 12.4727 11.818 12.5374 11.1703C12.5503 11.0797 12.5503 11.0019 12.5503 10.9113C12.7056 10.4191 12.7574 9.888 12.628 9.3958C12.4856 8.77407 12.1103 8.21711 11.6056 7.84149C11.1008 7.46585 10.4537 7.28451 9.81958 7.32337C9.12072 7.37519 8.44773 7.69901 7.99477 8.21711C7.58062 8.68341 7.33473 9.30513 7.30885 9.93981C7.2959 10.5227 7.46416 11.1056 7.80064 11.5718C8.13713 12.0511 8.61599 12.4138 9.17248 12.5822C9.89723 12.8283 10.7255 12.7246 11.3855 12.3361C11.515 12.8542 11.7479 13.3464 12.0715 13.7608C11.2691 14.2013 10.3114 14.3825 9.39249 14.2531C8.38303 14.1105 7.42532 13.5925 6.75235 12.8024C6.09231 12.0381 5.717 11.0278 5.717 10.0175C5.717 8.92951 6.14407 7.85443 6.8947 7.06432C7.60651 6.31306 8.61599 5.83381 9.65134 5.7561C10.7255 5.66544 11.8385 6.0022 12.6797 6.6887C13.4433 7.31042 13.9869 8.20416 14.194 9.16265C14.3233 9.79734 14.3104 10.4709 14.1422 11.1056C14.0257 11.4682 14.1422 11.8957 14.414 12.1677C14.634 12.3879 14.9446 12.5044 15.2552 12.4785C15.6046 12.4526 15.941 12.2324 16.1094 11.9216C16.187 11.7791 16.2258 11.6107 16.2647 11.4423C16.5365 10.2895 16.4588 9.05903 16.0705 7.93215C15.6564 6.72755 14.8669 5.63953 13.8445 4.87532C12.8998 4.16292 11.735 3.72253 10.5573 3.61891C9.30191 3.50233 8.00771 3.7873 6.90765 4.39607C5.89818 4.95303 5.03108 5.79496 4.46163 6.79232C3.80159 7.93215 3.50393 9.27923 3.6204 10.5874C3.73688 11.8957 4.2675 13.1521 5.10872 14.1494C5.94995 15.1598 7.12766 15.8981 8.40891 16.2219C9.92312 16.6233 11.5926 16.4291 12.9774 15.7038C13.1456 15.6261 13.301 15.4965 13.4951 15.4707C13.8445 15.4059 14.2198 15.6131 14.3493 15.9369C14.5046 16.2736 14.3622 16.7141 14.0516 16.9084C12.6409 17.7373 10.9714 18.1129 9.32778 17.9704C8.20184 17.8669 7.10178 17.5301 6.11819 16.9861C5.00519 16.3644 4.04749 15.4707 3.34863 14.4085C2.55917 13.2557 2.1062 11.8827 2.01561 10.4968C1.91207 8.86475 2.32621 7.21975 3.18038 5.82086C3.99572 4.48674 5.19932 3.41167 6.62293 2.75108Z" fill="#909498"/>
</svg>
