<svg width="20" height="20" viewBox="0 0 20 20" fill="none" xmlns="http://www.w3.org/2000/svg">
<path d="M9.81029 10.0996C12.046 10.0996 13.8562 8.28938 13.8562 6.05367C13.8562 3.81023 12.046 2 9.81029 2C7.57458 2 5.76436 3.81023 5.76436 6.04593C5.76436 8.28164 7.57458 10.0996 9.81029 10.0996ZM9.81029 4.05778C10.9088 4.05778 11.7984 4.94742 11.7984 6.04593C11.7984 7.14445 10.9088 8.03409 9.81029 8.03409C8.71178 8.03409 7.8144 7.15218 7.8144 6.04593C7.8144 4.94742 8.71178 4.05778 9.81029 4.05778ZM14.4751 10.5947C14.243 10.1383 13.6164 9.75148 12.7732 10.4168C11.636 11.3142 9.81029 11.3141 9.81029 11.3141C9.81029 11.3141 7.98459 11.3142 6.8474 10.4168C6.00417 9.75148 5.36982 10.1383 5.14548 10.5947C4.74321 11.3915 5.19963 11.7783 6.21305 12.4359C7.07948 12.9929 8.27083 13.2017 9.04443 13.2791L8.40234 13.9212C7.49722 14.8263 6.62306 15.7005 6.01965 16.3039C5.65605 16.6675 5.65605 17.2554 6.01965 17.619L6.12795 17.7273C6.49154 18.0909 7.07948 18.0909 7.44307 17.7273L9.82576 15.3446C10.7309 16.2497 11.605 17.1239 12.2084 17.7273C12.572 18.0909 13.16 18.0909 13.5236 17.7273L13.6319 17.619C13.9955 17.2554 13.9955 16.6675 13.6319 16.3039L11.2414 13.9135L10.5994 13.2714C11.373 13.194 12.5488 12.9851 13.4075 12.4281C14.421 11.7783 14.8774 11.3915 14.4751 10.5947Z" fill="#909498"/>
</svg>
