<svg width="20" height="20" viewBox="0 0 20 20" fill="none" xmlns="http://www.w3.org/2000/svg">
<path d="M9.80445 14.9542H10.8812C10.8812 14.9542 11.2037 14.917 11.3732 14.7466C11.5262 14.5868 11.5208 14.2887 11.5208 14.2887C11.5208 14.2887 11.4989 12.8829 12.1712 12.6753C12.8326 12.4729 13.6798 14.0331 14.5763 14.6348C15.254 15.0874 15.7733 14.9915 15.7733 14.9915L18.1783 14.9596C18.1783 14.9596 19.4355 14.885 18.8397 13.9213C18.7905 13.8414 18.4899 13.2078 17.0524 11.9085C15.5437 10.5454 15.746 10.769 17.5607 8.41022C18.6648 6.97256 19.1076 6.09931 18.9709 5.72126C18.8397 5.3645 18.0253 5.46035 18.0253 5.46035L15.3196 5.47632C15.3196 5.47632 15.1174 5.4497 14.9698 5.53489C14.8222 5.62009 14.7293 5.8171 14.7293 5.8171C14.7293 5.8171 14.303 6.92996 13.729 7.87243C12.5265 9.86385 12.04 9.97035 11.8433 9.84788C11.3841 9.56035 11.4989 8.6871 11.4989 8.06944C11.4989 6.13658 11.7995 5.33256 10.914 5.12489C10.6189 5.05567 10.4057 5.00775 9.6514 5.00243C8.68392 4.99178 7.86948 5.00775 7.40488 5.22606C7.09878 5.37515 6.85828 5.69996 7.00586 5.72126C7.18624 5.74256 7.59072 5.82775 7.80389 6.10996C8.08266 6.47736 8.07173 7.30269 8.07173 7.30269C8.07173 7.30269 8.23024 9.57632 7.70004 9.85853C7.33382 10.0502 6.83641 9.65619 5.75961 7.85113C5.21301 6.91931 4.7976 5.89165 4.7976 5.89165C4.7976 5.89165 4.71561 5.69996 4.57349 5.59879C4.39858 5.47632 4.15808 5.43372 4.15808 5.43372L1.58906 5.4497C1.58906 5.4497 1.20097 5.46035 1.05886 5.62541C0.933139 5.76918 1.04792 6.07269 1.04792 6.07269C1.04792 6.07269 3.06488 10.6572 5.3442 12.9735C7.43221 15.0927 9.80445 14.9542 9.80445 14.9542Z" fill="#909498"/>
</svg>
