<svg width="20" height="20" viewBox="0 0 20 20" fill="none" xmlns="http://www.w3.org/2000/svg">
<path d="M14.5793 11.7668C14.5461 11.7509 13.3068 11.1406 13.0866 11.0614C12.9967 11.0291 12.9003 10.9976 12.7979 10.9976C12.6305 10.9976 12.49 11.081 12.3805 11.2448C12.2567 11.4288 11.8819 11.8669 11.7661 11.9977C11.751 12.015 11.7303 12.0356 11.718 12.0356C11.7069 12.0356 11.5151 11.9567 11.457 11.9315C10.1275 11.354 9.11839 9.96519 8.98002 9.731C8.96026 9.69733 8.95926 9.68204 8.95926 9.68204C8.96412 9.66421 9.00883 9.61939 9.0319 9.59627C9.0994 9.52948 9.17254 9.44145 9.2433 9.35628C9.2768 9.31593 9.31036 9.27553 9.34331 9.23745C9.44597 9.118 9.49167 9.02528 9.54466 8.91787L9.57242 8.86207C9.7018 8.60502 9.5913 8.38811 9.55559 8.31807C9.52628 8.25945 9.00298 6.99648 8.94734 6.86379C8.81355 6.54361 8.63676 6.39453 8.39109 6.39453C8.36829 6.39453 8.39109 6.39453 8.29549 6.39856C8.17908 6.40347 7.54517 6.48692 7.26489 6.6636C6.96767 6.85099 6.46484 7.44831 6.46484 8.49877C6.46484 9.44421 7.06481 10.3369 7.32241 10.6764C7.32881 10.6849 7.34056 10.7023 7.35762 10.7273C8.34412 12.1679 9.57391 13.2356 10.8206 13.7337C12.0208 14.2131 12.5891 14.2685 12.9123 14.2685C13.0481 14.2685 13.1568 14.2578 13.2526 14.2484L13.3135 14.2426C13.7281 14.2058 14.6392 13.7337 14.8465 13.1577C15.0098 12.7041 15.0528 12.2085 14.9442 12.0286C14.8698 11.9063 14.7416 11.8447 14.5793 11.7668Z" fill="#909498"/>
<path d="M10.6509 2C6.04676 2 2.30102 5.71759 2.30102 10.2871C2.30102 11.7651 2.69655 13.2118 3.44582 14.4779L2.01169 18.7084C1.98497 18.7872 2.00484 18.8744 2.06319 18.9338C2.1053 18.9768 2.16242 19 2.22077 19C2.24312 19 2.26564 18.9966 2.28761 18.9896L6.69878 17.5879C7.90589 18.2328 9.27019 18.5733 10.651 18.5733C15.2546 18.5733 19 14.8561 19 10.2871C19 5.71759 15.2546 2 10.6509 2ZM10.6509 16.8471C9.35166 16.8471 8.09327 16.4719 7.01157 15.7621C6.97519 15.7382 6.93297 15.726 6.89047 15.726C6.868 15.726 6.84548 15.7294 6.82357 15.7363L4.61385 16.4387L5.32719 14.3342C5.35026 14.2661 5.33872 14.191 5.29622 14.1329C4.47249 13.0074 4.03706 11.6776 4.03706 10.2871C4.03706 6.66948 7.004 3.72627 10.6508 3.72627C14.2972 3.72627 17.2638 6.66948 17.2638 10.2871C17.2639 13.9043 14.2973 16.8471 10.6509 16.8471Z" fill="#909498"/>
</svg>
